<mxfile host="Electron" modified="2024-03-19T17:58:29.371Z" agent="Mozilla/5.0 (X11; Linux x86_64) AppleWebKit/537.36 (KHTML, like Gecko) draw.io/24.0.4 Chrome/120.0.6099.109 Electron/28.1.0 Safari/537.36" etag="PmB1BE0W_MGFphHUM7y9" version="24.0.4" type="device">
  <diagram name="Page-1" id="xD801_ucFq414uZnRlKG">
    <mxGraphModel dx="4740" dy="3259" grid="0" gridSize="10" guides="1" tooltips="1" connect="1" arrows="1" fold="1" page="1" pageScale="1" pageWidth="1100" pageHeight="850" math="0" shadow="0">
      <root>
        <mxCell id="0" />
        <mxCell id="1" parent="0" />
        <mxCell id="_su7K73Y4DXP-7mO-JMW-1" value="MUEBLE" style="whiteSpace=wrap;html=1;align=center;" vertex="1" parent="1">
          <mxGeometry x="288" y="873" width="100" height="40" as="geometry" />
        </mxCell>
        <mxCell id="_su7K73Y4DXP-7mO-JMW-2" value="" style="verticalLabelPosition=bottom;verticalAlign=top;html=1;shape=mxgraph.basic.acute_triangle;dx=0.5;rotation=-180;" vertex="1" parent="1">
          <mxGeometry x="288" y="973" width="100" height="70" as="geometry" />
        </mxCell>
        <mxCell id="_su7K73Y4DXP-7mO-JMW-3" value="BAJO" style="whiteSpace=wrap;html=1;align=center;" vertex="1" parent="1">
          <mxGeometry x="228" y="1103" width="100" height="40" as="geometry" />
        </mxCell>
        <mxCell id="_su7K73Y4DXP-7mO-JMW-4" value="PANEL" style="whiteSpace=wrap;html=1;align=center;" vertex="1" parent="1">
          <mxGeometry x="348" y="1103" width="100" height="40" as="geometry" />
        </mxCell>
        <mxCell id="_su7K73Y4DXP-7mO-JMW-5" value="" style="endArrow=none;html=1;rounded=0;entryX=0.5;entryY=1;entryDx=0;entryDy=0;exitX=0.5;exitY=1;exitDx=0;exitDy=0;exitPerimeter=0;" edge="1" parent="1" source="_su7K73Y4DXP-7mO-JMW-9" target="_su7K73Y4DXP-7mO-JMW-1">
          <mxGeometry width="50" height="50" relative="1" as="geometry">
            <mxPoint x="344" y="1013" as="sourcePoint" />
            <mxPoint x="394" y="963" as="targetPoint" />
          </mxGeometry>
        </mxCell>
        <mxCell id="_su7K73Y4DXP-7mO-JMW-6" value="" style="endArrow=none;html=1;rounded=0;entryX=0;entryY=0;entryDx=75;entryDy=35;exitX=0.5;exitY=0;exitDx=0;exitDy=0;entryPerimeter=0;" edge="1" parent="1" source="_su7K73Y4DXP-7mO-JMW-3" target="_su7K73Y4DXP-7mO-JMW-2">
          <mxGeometry width="50" height="50" relative="1" as="geometry">
            <mxPoint x="348" y="983" as="sourcePoint" />
            <mxPoint x="348" y="923" as="targetPoint" />
          </mxGeometry>
        </mxCell>
        <mxCell id="_su7K73Y4DXP-7mO-JMW-7" value="" style="endArrow=none;html=1;rounded=0;exitX=0.5;exitY=0;exitDx=0;exitDy=0;entryX=0;entryY=0;entryDx=25;entryDy=35;entryPerimeter=0;" edge="1" parent="1" source="_su7K73Y4DXP-7mO-JMW-4" target="_su7K73Y4DXP-7mO-JMW-2">
          <mxGeometry width="50" height="50" relative="1" as="geometry">
            <mxPoint x="278" y="1113" as="sourcePoint" />
            <mxPoint x="391" y="1010" as="targetPoint" />
          </mxGeometry>
        </mxCell>
        <mxCell id="_su7K73Y4DXP-7mO-JMW-8" value="" style="endArrow=none;html=1;rounded=0;entryX=0.5;entryY=1;entryDx=0;entryDy=0;exitX=0.5;exitY=1;exitDx=0;exitDy=0;exitPerimeter=0;" edge="1" parent="1" source="_su7K73Y4DXP-7mO-JMW-2" target="_su7K73Y4DXP-7mO-JMW-9">
          <mxGeometry width="50" height="50" relative="1" as="geometry">
            <mxPoint x="338" y="973" as="sourcePoint" />
            <mxPoint x="338" y="913" as="targetPoint" />
          </mxGeometry>
        </mxCell>
        <mxCell id="_su7K73Y4DXP-7mO-JMW-9" value="" style="ellipse;whiteSpace=wrap;html=1;aspect=fixed;" vertex="1" parent="1">
          <mxGeometry x="328" y="933" width="20" height="20" as="geometry" />
        </mxCell>
        <mxCell id="_su7K73Y4DXP-7mO-JMW-10" value="ALTO" style="whiteSpace=wrap;html=1;align=center;" vertex="1" parent="1">
          <mxGeometry x="108" y="1103" width="100" height="40" as="geometry" />
        </mxCell>
        <mxCell id="_su7K73Y4DXP-7mO-JMW-11" value="ENCIMERA" style="whiteSpace=wrap;html=1;align=center;" vertex="1" parent="1">
          <mxGeometry x="468" y="1103" width="100" height="40" as="geometry" />
        </mxCell>
        <mxCell id="_su7K73Y4DXP-7mO-JMW-12" value="" style="endArrow=none;html=1;rounded=0;exitX=0.5;exitY=0;exitDx=0;exitDy=0;entryX=0;entryY=0;entryDx=75;entryDy=35;entryPerimeter=0;" edge="1" parent="1" source="_su7K73Y4DXP-7mO-JMW-10" target="_su7K73Y4DXP-7mO-JMW-2">
          <mxGeometry width="50" height="50" relative="1" as="geometry">
            <mxPoint x="452" y="985" as="sourcePoint" />
            <mxPoint x="502" y="935" as="targetPoint" />
          </mxGeometry>
        </mxCell>
        <mxCell id="_su7K73Y4DXP-7mO-JMW-13" value="" style="endArrow=none;html=1;rounded=0;exitX=0;exitY=0;exitDx=25;exitDy=35;exitPerimeter=0;entryX=0.5;entryY=0;entryDx=0;entryDy=0;" edge="1" parent="1" source="_su7K73Y4DXP-7mO-JMW-2" target="_su7K73Y4DXP-7mO-JMW-11">
          <mxGeometry width="50" height="50" relative="1" as="geometry">
            <mxPoint x="452" y="985" as="sourcePoint" />
            <mxPoint x="502" y="935" as="targetPoint" />
          </mxGeometry>
        </mxCell>
        <mxCell id="_su7K73Y4DXP-7mO-JMW-14" value="" style="endArrow=none;html=1;rounded=0;exitX=1;exitY=0;exitDx=0;exitDy=0;entryX=0;entryY=0;entryDx=0;entryDy=0;" edge="1" parent="1">
          <mxGeometry width="50" height="50" relative="1" as="geometry">
            <mxPoint x="208" y="1043" as="sourcePoint" />
            <mxPoint x="468" y="1043" as="targetPoint" />
            <Array as="points">
              <mxPoint x="338" y="1083" />
            </Array>
          </mxGeometry>
        </mxCell>
        <mxCell id="_su7K73Y4DXP-7mO-JMW-15" value="" style="endArrow=classic;html=1;rounded=0;entryX=1;entryY=0.5;entryDx=0;entryDy=0;exitX=0;exitY=0.5;exitDx=0;exitDy=0;" edge="1" parent="1" target="_su7K73Y4DXP-7mO-JMW-1" source="_su7K73Y4DXP-7mO-JMW-43">
          <mxGeometry width="50" height="50" relative="1" as="geometry">
            <mxPoint x="508" y="893" as="sourcePoint" />
            <mxPoint x="475" y="910" as="targetPoint" />
          </mxGeometry>
        </mxCell>
        <mxCell id="_su7K73Y4DXP-7mO-JMW-16" value="( 1, N )" style="text;html=1;align=center;verticalAlign=middle;resizable=0;points=[];autosize=1;strokeColor=none;fillColor=none;" vertex="1" parent="1">
          <mxGeometry x="388" y="893" width="55" height="26" as="geometry" />
        </mxCell>
        <mxCell id="_su7K73Y4DXP-7mO-JMW-17" value="" style="endArrow=classic;html=1;rounded=0;exitX=1;exitY=0.5;exitDx=0;exitDy=0;entryX=0;entryY=0.5;entryDx=0;entryDy=0;" edge="1" parent="1" target="_su7K73Y4DXP-7mO-JMW-1" source="_su7K73Y4DXP-7mO-JMW-20">
          <mxGeometry width="50" height="50" relative="1" as="geometry">
            <mxPoint x="168" y="893" as="sourcePoint" />
            <mxPoint x="262" y="785" as="targetPoint" />
          </mxGeometry>
        </mxCell>
        <mxCell id="_su7K73Y4DXP-7mO-JMW-18" value="( 1, N )" style="text;html=1;align=center;verticalAlign=middle;resizable=0;points=[];autosize=1;strokeColor=none;fillColor=none;" vertex="1" parent="1">
          <mxGeometry x="233" y="893" width="55" height="26" as="geometry" />
        </mxCell>
        <mxCell id="_su7K73Y4DXP-7mO-JMW-20" value="fabricar" style="shape=rhombus;perimeter=rhombusPerimeter;whiteSpace=wrap;html=1;align=center;" vertex="1" parent="1">
          <mxGeometry x="48" y="863" width="120" height="60" as="geometry" />
        </mxCell>
        <mxCell id="_su7K73Y4DXP-7mO-JMW-21" value="FABRICANTE" style="whiteSpace=wrap;html=1;align=center;" vertex="1" parent="1">
          <mxGeometry x="-172" y="873" width="100" height="40" as="geometry" />
        </mxCell>
        <mxCell id="_su7K73Y4DXP-7mO-JMW-22" value="" style="endArrow=none;html=1;rounded=0;exitX=1;exitY=0.5;exitDx=0;exitDy=0;entryX=0;entryY=0.5;entryDx=0;entryDy=0;" edge="1" parent="1" source="_su7K73Y4DXP-7mO-JMW-21" target="_su7K73Y4DXP-7mO-JMW-20">
          <mxGeometry width="50" height="50" relative="1" as="geometry">
            <mxPoint x="170" y="923" as="sourcePoint" />
            <mxPoint x="220" y="873" as="targetPoint" />
          </mxGeometry>
        </mxCell>
        <mxCell id="_su7K73Y4DXP-7mO-JMW-23" value="( 1, 1 )" style="text;html=1;align=center;verticalAlign=middle;resizable=0;points=[];autosize=1;strokeColor=none;fillColor=none;" vertex="1" parent="1">
          <mxGeometry x="-72" y="893" width="53" height="26" as="geometry" />
        </mxCell>
        <mxCell id="_su7K73Y4DXP-7mO-JMW-24" value="1 : N" style="text;html=1;align=center;verticalAlign=middle;resizable=0;points=[];autosize=1;strokeColor=none;fillColor=none;" vertex="1" parent="1">
          <mxGeometry x="86.5" y="837" width="43" height="26" as="geometry" />
        </mxCell>
        <mxCell id="_su7K73Y4DXP-7mO-JMW-25" value="trabajar" style="shape=rhombus;perimeter=rhombusPerimeter;whiteSpace=wrap;html=1;align=center;" vertex="1" parent="1">
          <mxGeometry x="-182" y="753" width="120" height="60" as="geometry" />
        </mxCell>
        <mxCell id="_su7K73Y4DXP-7mO-JMW-27" value="DISTRIBUIDOR" style="whiteSpace=wrap;html=1;align=center;" vertex="1" parent="1">
          <mxGeometry x="-172" y="653" width="100" height="40" as="geometry" />
        </mxCell>
        <mxCell id="_su7K73Y4DXP-7mO-JMW-28" value="" style="endArrow=classic;html=1;rounded=0;exitX=0.5;exitY=1;exitDx=0;exitDy=0;entryX=0.5;entryY=0;entryDx=0;entryDy=0;" edge="1" parent="1" source="_su7K73Y4DXP-7mO-JMW-25" target="_su7K73Y4DXP-7mO-JMW-21">
          <mxGeometry width="50" height="50" relative="1" as="geometry">
            <mxPoint x="7" y="853" as="sourcePoint" />
            <mxPoint x="57" y="803" as="targetPoint" />
          </mxGeometry>
        </mxCell>
        <mxCell id="_su7K73Y4DXP-7mO-JMW-29" value="" style="endArrow=classic;html=1;rounded=0;exitX=0.5;exitY=0;exitDx=0;exitDy=0;entryX=0.5;entryY=1;entryDx=0;entryDy=0;" edge="1" parent="1" source="_su7K73Y4DXP-7mO-JMW-25" target="_su7K73Y4DXP-7mO-JMW-27">
          <mxGeometry width="50" height="50" relative="1" as="geometry">
            <mxPoint x="7" y="853" as="sourcePoint" />
            <mxPoint x="57" y="803" as="targetPoint" />
          </mxGeometry>
        </mxCell>
        <mxCell id="_su7K73Y4DXP-7mO-JMW-30" value="( 1, N )" style="text;html=1;align=center;verticalAlign=middle;resizable=0;points=[];autosize=1;strokeColor=none;fillColor=none;" vertex="1" parent="1">
          <mxGeometry x="-177" y="847" width="55" height="26" as="geometry" />
        </mxCell>
        <mxCell id="_su7K73Y4DXP-7mO-JMW-31" value="( 0, N )" style="text;html=1;align=center;verticalAlign=middle;resizable=0;points=[];autosize=1;strokeColor=none;fillColor=none;" vertex="1" parent="1">
          <mxGeometry x="-177" y="693" width="55" height="26" as="geometry" />
        </mxCell>
        <mxCell id="_su7K73Y4DXP-7mO-JMW-33" value="cede" style="shape=rhombus;perimeter=rhombusPerimeter;whiteSpace=wrap;html=1;align=center;" vertex="1" parent="1">
          <mxGeometry x="-182" y="533" width="120" height="60" as="geometry" />
        </mxCell>
        <mxCell id="_su7K73Y4DXP-7mO-JMW-37" value="" style="endArrow=classic;html=1;rounded=0;entryX=1;entryY=0;entryDx=0;entryDy=0;exitX=1;exitY=1;exitDx=0;exitDy=0;" edge="1" parent="1" source="_su7K73Y4DXP-7mO-JMW-33">
          <mxGeometry width="50" height="50" relative="1" as="geometry">
            <mxPoint x="-92" y="578" as="sourcePoint" />
            <mxPoint x="-92" y="653" as="targetPoint" />
          </mxGeometry>
        </mxCell>
        <mxCell id="_su7K73Y4DXP-7mO-JMW-38" value="" style="endArrow=classic;html=1;rounded=0;entryX=1;entryY=0;entryDx=0;entryDy=0;exitX=0;exitY=1;exitDx=0;exitDy=0;" edge="1" parent="1" source="_su7K73Y4DXP-7mO-JMW-33">
          <mxGeometry width="50" height="50" relative="1" as="geometry">
            <mxPoint x="-152" y="578" as="sourcePoint" />
            <mxPoint x="-152" y="653" as="targetPoint" />
          </mxGeometry>
        </mxCell>
        <mxCell id="_su7K73Y4DXP-7mO-JMW-39" value="N : M" style="text;html=1;align=center;verticalAlign=middle;resizable=0;points=[];autosize=1;strokeColor=none;fillColor=none;" vertex="1" parent="1">
          <mxGeometry x="-145.5" y="507" width="47" height="26" as="geometry" />
        </mxCell>
        <mxCell id="_su7K73Y4DXP-7mO-JMW-40" value="( 0, N )" style="text;html=1;align=center;verticalAlign=middle;resizable=0;points=[];autosize=1;strokeColor=none;fillColor=none;" vertex="1" parent="1">
          <mxGeometry x="-207" y="610" width="55" height="26" as="geometry" />
        </mxCell>
        <mxCell id="_su7K73Y4DXP-7mO-JMW-41" value="( 0, N )" style="text;html=1;align=center;verticalAlign=middle;resizable=0;points=[];autosize=1;strokeColor=none;fillColor=none;" vertex="1" parent="1">
          <mxGeometry x="-92" y="610" width="55" height="26" as="geometry" />
        </mxCell>
        <mxCell id="_su7K73Y4DXP-7mO-JMW-43" value="compone" style="shape=rhombus;perimeter=rhombusPerimeter;whiteSpace=wrap;html=1;align=center;" vertex="1" parent="1">
          <mxGeometry x="508" y="863" width="120" height="60" as="geometry" />
        </mxCell>
        <mxCell id="_su7K73Y4DXP-7mO-JMW-44" value="COCINA" style="whiteSpace=wrap;html=1;align=center;" vertex="1" parent="1">
          <mxGeometry x="748" y="873" width="100" height="40" as="geometry" />
        </mxCell>
        <mxCell id="_su7K73Y4DXP-7mO-JMW-45" value="" style="endArrow=none;html=1;rounded=0;exitX=1;exitY=0.5;exitDx=0;exitDy=0;entryX=0;entryY=0.5;entryDx=0;entryDy=0;" edge="1" parent="1" source="_su7K73Y4DXP-7mO-JMW-43" target="_su7K73Y4DXP-7mO-JMW-44">
          <mxGeometry width="50" height="50" relative="1" as="geometry">
            <mxPoint x="1044" y="830" as="sourcePoint" />
            <mxPoint x="1094" y="780" as="targetPoint" />
          </mxGeometry>
        </mxCell>
        <mxCell id="_su7K73Y4DXP-7mO-JMW-46" value="( 0, 1 )" style="text;html=1;align=center;verticalAlign=middle;resizable=0;points=[];autosize=1;strokeColor=none;fillColor=none;" vertex="1" parent="1">
          <mxGeometry x="695" y="893" width="53" height="26" as="geometry" />
        </mxCell>
        <mxCell id="_su7K73Y4DXP-7mO-JMW-47" value="1 : N" style="text;html=1;align=center;verticalAlign=middle;resizable=0;points=[];autosize=1;strokeColor=none;fillColor=none;" vertex="1" parent="1">
          <mxGeometry x="546.5" y="837" width="43" height="26" as="geometry" />
        </mxCell>
        <mxCell id="_su7K73Y4DXP-7mO-JMW-48" value="vender" style="shape=rhombus;perimeter=rhombusPerimeter;whiteSpace=wrap;html=1;align=center;" vertex="1" parent="1">
          <mxGeometry x="738" y="643" width="120" height="60" as="geometry" />
        </mxCell>
        <mxCell id="_su7K73Y4DXP-7mO-JMW-49" value="" style="endArrow=classic;html=1;rounded=0;entryX=0.5;entryY=0;entryDx=0;entryDy=0;exitX=0.5;exitY=1;exitDx=0;exitDy=0;" edge="1" parent="1" source="_su7K73Y4DXP-7mO-JMW-48" target="_su7K73Y4DXP-7mO-JMW-44">
          <mxGeometry width="50" height="50" relative="1" as="geometry">
            <mxPoint x="542" y="797" as="sourcePoint" />
            <mxPoint x="592" y="747" as="targetPoint" />
          </mxGeometry>
        </mxCell>
        <mxCell id="_su7K73Y4DXP-7mO-JMW-50" value="" style="endArrow=none;html=1;rounded=0;exitX=1;exitY=0.5;exitDx=0;exitDy=0;entryX=0;entryY=0.5;entryDx=0;entryDy=0;" edge="1" parent="1" source="_su7K73Y4DXP-7mO-JMW-27" target="_su7K73Y4DXP-7mO-JMW-48">
          <mxGeometry width="50" height="50" relative="1" as="geometry">
            <mxPoint x="542" y="797" as="sourcePoint" />
            <mxPoint x="592" y="747" as="targetPoint" />
          </mxGeometry>
        </mxCell>
        <mxCell id="_su7K73Y4DXP-7mO-JMW-51" value="( 0, 1 )" style="text;html=1;align=center;verticalAlign=middle;resizable=0;points=[];autosize=1;strokeColor=none;fillColor=none;" vertex="1" parent="1">
          <mxGeometry x="-72" y="673" width="53" height="26" as="geometry" />
        </mxCell>
        <mxCell id="_su7K73Y4DXP-7mO-JMW-52" value="1 : N" style="text;html=1;align=center;verticalAlign=middle;resizable=0;points=[];autosize=1;strokeColor=none;fillColor=none;" vertex="1" parent="1">
          <mxGeometry x="776.5" y="617" width="43" height="26" as="geometry" />
        </mxCell>
        <mxCell id="_su7K73Y4DXP-7mO-JMW-53" value="( 0, N )" style="text;html=1;align=center;verticalAlign=middle;resizable=0;points=[];autosize=1;strokeColor=none;fillColor=none;" vertex="1" parent="1">
          <mxGeometry x="743" y="847" width="55" height="26" as="geometry" />
        </mxCell>
        <mxCell id="_su7K73Y4DXP-7mO-JMW-55" value="comprar" style="shape=rhombus;perimeter=rhombusPerimeter;whiteSpace=wrap;html=1;align=center;" vertex="1" parent="1">
          <mxGeometry x="968" y="863" width="120" height="60" as="geometry" />
        </mxCell>
        <mxCell id="_su7K73Y4DXP-7mO-JMW-57" value="" style="endArrow=classic;html=1;rounded=0;entryX=1;entryY=0.5;entryDx=0;entryDy=0;exitX=0;exitY=0.5;exitDx=0;exitDy=0;" edge="1" parent="1" source="_su7K73Y4DXP-7mO-JMW-55" target="_su7K73Y4DXP-7mO-JMW-44">
          <mxGeometry width="50" height="50" relative="1" as="geometry">
            <mxPoint x="1039" y="853" as="sourcePoint" />
            <mxPoint x="1089" y="803" as="targetPoint" />
          </mxGeometry>
        </mxCell>
        <mxCell id="_su7K73Y4DXP-7mO-JMW-58" value="CLIENTE" style="whiteSpace=wrap;html=1;align=center;" vertex="1" parent="1">
          <mxGeometry x="1208" y="873" width="100" height="40" as="geometry" />
        </mxCell>
        <mxCell id="_su7K73Y4DXP-7mO-JMW-59" value="" style="endArrow=classic;html=1;rounded=0;exitX=1;exitY=0.5;exitDx=0;exitDy=0;entryX=0;entryY=0.5;entryDx=0;entryDy=0;" edge="1" parent="1" source="_su7K73Y4DXP-7mO-JMW-55" target="_su7K73Y4DXP-7mO-JMW-58">
          <mxGeometry width="50" height="50" relative="1" as="geometry">
            <mxPoint x="1106" y="868" as="sourcePoint" />
            <mxPoint x="1156" y="818" as="targetPoint" />
          </mxGeometry>
        </mxCell>
        <mxCell id="_su7K73Y4DXP-7mO-JMW-60" value="N : M" style="text;html=1;align=center;verticalAlign=middle;resizable=0;points=[];autosize=1;strokeColor=none;fillColor=none;" vertex="1" parent="1">
          <mxGeometry x="1004.5" y="923" width="47" height="26" as="geometry" />
        </mxCell>
        <mxCell id="_su7K73Y4DXP-7mO-JMW-61" value="( 0, N )" style="text;html=1;align=center;verticalAlign=middle;resizable=0;points=[];autosize=1;strokeColor=none;fillColor=none;" vertex="1" parent="1">
          <mxGeometry x="848" y="867" width="55" height="26" as="geometry" />
        </mxCell>
        <mxCell id="_su7K73Y4DXP-7mO-JMW-62" value="( 1, N )" style="text;html=1;align=center;verticalAlign=middle;resizable=0;points=[];autosize=1;strokeColor=none;fillColor=none;" vertex="1" parent="1">
          <mxGeometry x="1153" y="867" width="55" height="26" as="geometry" />
        </mxCell>
        <mxCell id="_su7K73Y4DXP-7mO-JMW-64" value="montar" style="shape=rhombus;perimeter=rhombusPerimeter;whiteSpace=wrap;html=1;align=center;" vertex="1" parent="1">
          <mxGeometry x="738" y="973" width="120" height="60" as="geometry" />
        </mxCell>
        <mxCell id="_su7K73Y4DXP-7mO-JMW-65" value="MONTADOR" style="whiteSpace=wrap;html=1;align=center;" vertex="1" parent="1">
          <mxGeometry x="748" y="1093" width="100" height="40" as="geometry" />
        </mxCell>
        <mxCell id="_su7K73Y4DXP-7mO-JMW-66" value="" style="endArrow=classic;html=1;rounded=0;entryX=0.5;entryY=1;entryDx=0;entryDy=0;exitX=0.5;exitY=0;exitDx=0;exitDy=0;" edge="1" parent="1" source="_su7K73Y4DXP-7mO-JMW-64" target="_su7K73Y4DXP-7mO-JMW-44">
          <mxGeometry width="50" height="50" relative="1" as="geometry">
            <mxPoint x="831" y="1016" as="sourcePoint" />
            <mxPoint x="881" y="966" as="targetPoint" />
          </mxGeometry>
        </mxCell>
        <mxCell id="_su7K73Y4DXP-7mO-JMW-67" value="" style="endArrow=classic;html=1;rounded=0;exitX=0.5;exitY=1;exitDx=0;exitDy=0;entryX=0.5;entryY=0;entryDx=0;entryDy=0;" edge="1" parent="1" source="_su7K73Y4DXP-7mO-JMW-64" target="_su7K73Y4DXP-7mO-JMW-65">
          <mxGeometry width="50" height="50" relative="1" as="geometry">
            <mxPoint x="831" y="1016" as="sourcePoint" />
            <mxPoint x="881" y="966" as="targetPoint" />
          </mxGeometry>
        </mxCell>
        <mxCell id="_su7K73Y4DXP-7mO-JMW-69" value="N : M" style="text;html=1;align=center;verticalAlign=middle;resizable=0;points=[];autosize=1;strokeColor=none;fillColor=none;" vertex="1" parent="1">
          <mxGeometry x="691" y="990" width="47" height="26" as="geometry" />
        </mxCell>
        <mxCell id="_su7K73Y4DXP-7mO-JMW-70" value="( 1, N )" style="text;html=1;align=center;verticalAlign=middle;resizable=0;points=[];autosize=1;strokeColor=none;fillColor=none;" vertex="1" parent="1">
          <mxGeometry x="798" y="1067" width="55" height="26" as="geometry" />
        </mxCell>
        <mxCell id="_su7K73Y4DXP-7mO-JMW-71" value="( 1, N )" style="text;html=1;align=center;verticalAlign=middle;resizable=0;points=[];autosize=1;strokeColor=none;fillColor=none;" vertex="1" parent="1">
          <mxGeometry x="798" y="913" width="55" height="26" as="geometry" />
        </mxCell>
        <mxCell id="_su7K73Y4DXP-7mO-JMW-72" value="Muebles" style="shape=table;startSize=30;container=1;collapsible=1;childLayout=tableLayout;fixedRows=1;rowLines=0;fontStyle=1;align=center;resizeLast=1;html=1;" vertex="1" parent="1">
          <mxGeometry x="580" y="37" width="180" height="270" as="geometry" />
        </mxCell>
        <mxCell id="_su7K73Y4DXP-7mO-JMW-73" value="" style="shape=tableRow;horizontal=0;startSize=0;swimlaneHead=0;swimlaneBody=0;fillColor=none;collapsible=0;dropTarget=0;points=[[0,0.5],[1,0.5]];portConstraint=eastwest;top=0;left=0;right=0;bottom=1;" vertex="1" parent="_su7K73Y4DXP-7mO-JMW-72">
          <mxGeometry y="30" width="180" height="30" as="geometry" />
        </mxCell>
        <mxCell id="_su7K73Y4DXP-7mO-JMW-74" value="PK" style="shape=partialRectangle;connectable=0;fillColor=none;top=0;left=0;bottom=0;right=0;fontStyle=1;overflow=hidden;whiteSpace=wrap;html=1;" vertex="1" parent="_su7K73Y4DXP-7mO-JMW-73">
          <mxGeometry width="30" height="30" as="geometry">
            <mxRectangle width="30" height="30" as="alternateBounds" />
          </mxGeometry>
        </mxCell>
        <mxCell id="_su7K73Y4DXP-7mO-JMW-75" value="id" style="shape=partialRectangle;connectable=0;fillColor=none;top=0;left=0;bottom=0;right=0;align=left;spacingLeft=6;fontStyle=5;overflow=hidden;whiteSpace=wrap;html=1;" vertex="1" parent="_su7K73Y4DXP-7mO-JMW-73">
          <mxGeometry x="30" width="150" height="30" as="geometry">
            <mxRectangle width="150" height="30" as="alternateBounds" />
          </mxGeometry>
        </mxCell>
        <mxCell id="_su7K73Y4DXP-7mO-JMW-402" value="" style="shape=tableRow;horizontal=0;startSize=0;swimlaneHead=0;swimlaneBody=0;fillColor=none;collapsible=0;dropTarget=0;points=[[0,0.5],[1,0.5]];portConstraint=eastwest;top=0;left=0;right=0;bottom=0;" vertex="1" parent="_su7K73Y4DXP-7mO-JMW-72">
          <mxGeometry y="60" width="180" height="30" as="geometry" />
        </mxCell>
        <mxCell id="_su7K73Y4DXP-7mO-JMW-403" value="FK" style="shape=partialRectangle;connectable=0;fillColor=none;top=0;left=0;bottom=0;right=0;fontStyle=0;overflow=hidden;whiteSpace=wrap;html=1;" vertex="1" parent="_su7K73Y4DXP-7mO-JMW-402">
          <mxGeometry width="30" height="30" as="geometry">
            <mxRectangle width="30" height="30" as="alternateBounds" />
          </mxGeometry>
        </mxCell>
        <mxCell id="_su7K73Y4DXP-7mO-JMW-404" value="codigo_cocina" style="shape=partialRectangle;connectable=0;fillColor=none;top=0;left=0;bottom=0;right=0;align=left;spacingLeft=6;fontStyle=0;overflow=hidden;whiteSpace=wrap;html=1;" vertex="1" parent="_su7K73Y4DXP-7mO-JMW-402">
          <mxGeometry x="30" width="150" height="30" as="geometry">
            <mxRectangle width="150" height="30" as="alternateBounds" />
          </mxGeometry>
        </mxCell>
        <mxCell id="_su7K73Y4DXP-7mO-JMW-325" value="" style="shape=tableRow;horizontal=0;startSize=0;swimlaneHead=0;swimlaneBody=0;fillColor=none;collapsible=0;dropTarget=0;points=[[0,0.5],[1,0.5]];portConstraint=eastwest;top=0;left=0;right=0;bottom=0;" vertex="1" parent="_su7K73Y4DXP-7mO-JMW-72">
          <mxGeometry y="90" width="180" height="30" as="geometry" />
        </mxCell>
        <mxCell id="_su7K73Y4DXP-7mO-JMW-326" value="FK" style="shape=partialRectangle;connectable=0;fillColor=none;top=0;left=0;bottom=0;right=0;fontStyle=0;overflow=hidden;whiteSpace=wrap;html=1;" vertex="1" parent="_su7K73Y4DXP-7mO-JMW-325">
          <mxGeometry width="30" height="30" as="geometry">
            <mxRectangle width="30" height="30" as="alternateBounds" />
          </mxGeometry>
        </mxCell>
        <mxCell id="_su7K73Y4DXP-7mO-JMW-327" value="id_fabricante" style="shape=partialRectangle;connectable=0;fillColor=none;top=0;left=0;bottom=0;right=0;align=left;spacingLeft=6;fontStyle=0;overflow=hidden;whiteSpace=wrap;html=1;" vertex="1" parent="_su7K73Y4DXP-7mO-JMW-325">
          <mxGeometry x="30" width="150" height="30" as="geometry">
            <mxRectangle width="150" height="30" as="alternateBounds" />
          </mxGeometry>
        </mxCell>
        <mxCell id="_su7K73Y4DXP-7mO-JMW-76" value="" style="shape=tableRow;horizontal=0;startSize=0;swimlaneHead=0;swimlaneBody=0;fillColor=none;collapsible=0;dropTarget=0;points=[[0,0.5],[1,0.5]];portConstraint=eastwest;top=0;left=0;right=0;bottom=0;" vertex="1" parent="_su7K73Y4DXP-7mO-JMW-72">
          <mxGeometry y="120" width="180" height="30" as="geometry" />
        </mxCell>
        <mxCell id="_su7K73Y4DXP-7mO-JMW-77" value="" style="shape=partialRectangle;connectable=0;fillColor=none;top=0;left=0;bottom=0;right=0;editable=1;overflow=hidden;whiteSpace=wrap;html=1;" vertex="1" parent="_su7K73Y4DXP-7mO-JMW-76">
          <mxGeometry width="30" height="30" as="geometry">
            <mxRectangle width="30" height="30" as="alternateBounds" />
          </mxGeometry>
        </mxCell>
        <mxCell id="_su7K73Y4DXP-7mO-JMW-78" value="linea" style="shape=partialRectangle;connectable=0;fillColor=none;top=0;left=0;bottom=0;right=0;align=left;spacingLeft=6;overflow=hidden;whiteSpace=wrap;html=1;" vertex="1" parent="_su7K73Y4DXP-7mO-JMW-76">
          <mxGeometry x="30" width="150" height="30" as="geometry">
            <mxRectangle width="150" height="30" as="alternateBounds" />
          </mxGeometry>
        </mxCell>
        <mxCell id="_su7K73Y4DXP-7mO-JMW-79" value="" style="shape=tableRow;horizontal=0;startSize=0;swimlaneHead=0;swimlaneBody=0;fillColor=none;collapsible=0;dropTarget=0;points=[[0,0.5],[1,0.5]];portConstraint=eastwest;top=0;left=0;right=0;bottom=0;" vertex="1" parent="_su7K73Y4DXP-7mO-JMW-72">
          <mxGeometry y="150" width="180" height="30" as="geometry" />
        </mxCell>
        <mxCell id="_su7K73Y4DXP-7mO-JMW-80" value="" style="shape=partialRectangle;connectable=0;fillColor=none;top=0;left=0;bottom=0;right=0;editable=1;overflow=hidden;whiteSpace=wrap;html=1;" vertex="1" parent="_su7K73Y4DXP-7mO-JMW-79">
          <mxGeometry width="30" height="30" as="geometry">
            <mxRectangle width="30" height="30" as="alternateBounds" />
          </mxGeometry>
        </mxCell>
        <mxCell id="_su7K73Y4DXP-7mO-JMW-81" value="color" style="shape=partialRectangle;connectable=0;fillColor=none;top=0;left=0;bottom=0;right=0;align=left;spacingLeft=6;overflow=hidden;whiteSpace=wrap;html=1;" vertex="1" parent="_su7K73Y4DXP-7mO-JMW-79">
          <mxGeometry x="30" width="150" height="30" as="geometry">
            <mxRectangle width="150" height="30" as="alternateBounds" />
          </mxGeometry>
        </mxCell>
        <mxCell id="_su7K73Y4DXP-7mO-JMW-311" value="" style="shape=tableRow;horizontal=0;startSize=0;swimlaneHead=0;swimlaneBody=0;fillColor=none;collapsible=0;dropTarget=0;points=[[0,0.5],[1,0.5]];portConstraint=eastwest;top=0;left=0;right=0;bottom=0;" vertex="1" parent="_su7K73Y4DXP-7mO-JMW-72">
          <mxGeometry y="180" width="180" height="30" as="geometry" />
        </mxCell>
        <mxCell id="_su7K73Y4DXP-7mO-JMW-312" value="" style="shape=partialRectangle;connectable=0;fillColor=none;top=0;left=0;bottom=0;right=0;editable=1;overflow=hidden;whiteSpace=wrap;html=1;" vertex="1" parent="_su7K73Y4DXP-7mO-JMW-311">
          <mxGeometry width="30" height="30" as="geometry">
            <mxRectangle width="30" height="30" as="alternateBounds" />
          </mxGeometry>
        </mxCell>
        <mxCell id="_su7K73Y4DXP-7mO-JMW-313" value="ancho" style="shape=partialRectangle;connectable=0;fillColor=none;top=0;left=0;bottom=0;right=0;align=left;spacingLeft=6;overflow=hidden;whiteSpace=wrap;html=1;" vertex="1" parent="_su7K73Y4DXP-7mO-JMW-311">
          <mxGeometry x="30" width="150" height="30" as="geometry">
            <mxRectangle width="150" height="30" as="alternateBounds" />
          </mxGeometry>
        </mxCell>
        <mxCell id="_su7K73Y4DXP-7mO-JMW-314" value="" style="shape=tableRow;horizontal=0;startSize=0;swimlaneHead=0;swimlaneBody=0;fillColor=none;collapsible=0;dropTarget=0;points=[[0,0.5],[1,0.5]];portConstraint=eastwest;top=0;left=0;right=0;bottom=0;" vertex="1" parent="_su7K73Y4DXP-7mO-JMW-72">
          <mxGeometry y="210" width="180" height="30" as="geometry" />
        </mxCell>
        <mxCell id="_su7K73Y4DXP-7mO-JMW-315" value="" style="shape=partialRectangle;connectable=0;fillColor=none;top=0;left=0;bottom=0;right=0;editable=1;overflow=hidden;whiteSpace=wrap;html=1;" vertex="1" parent="_su7K73Y4DXP-7mO-JMW-314">
          <mxGeometry width="30" height="30" as="geometry">
            <mxRectangle width="30" height="30" as="alternateBounds" />
          </mxGeometry>
        </mxCell>
        <mxCell id="_su7K73Y4DXP-7mO-JMW-316" value="largo" style="shape=partialRectangle;connectable=0;fillColor=none;top=0;left=0;bottom=0;right=0;align=left;spacingLeft=6;overflow=hidden;whiteSpace=wrap;html=1;" vertex="1" parent="_su7K73Y4DXP-7mO-JMW-314">
          <mxGeometry x="30" width="150" height="30" as="geometry">
            <mxRectangle width="150" height="30" as="alternateBounds" />
          </mxGeometry>
        </mxCell>
        <mxCell id="_su7K73Y4DXP-7mO-JMW-317" value="" style="shape=tableRow;horizontal=0;startSize=0;swimlaneHead=0;swimlaneBody=0;fillColor=none;collapsible=0;dropTarget=0;points=[[0,0.5],[1,0.5]];portConstraint=eastwest;top=0;left=0;right=0;bottom=0;" vertex="1" parent="_su7K73Y4DXP-7mO-JMW-72">
          <mxGeometry y="240" width="180" height="30" as="geometry" />
        </mxCell>
        <mxCell id="_su7K73Y4DXP-7mO-JMW-318" value="" style="shape=partialRectangle;connectable=0;fillColor=none;top=0;left=0;bottom=0;right=0;editable=1;overflow=hidden;whiteSpace=wrap;html=1;" vertex="1" parent="_su7K73Y4DXP-7mO-JMW-317">
          <mxGeometry width="30" height="30" as="geometry">
            <mxRectangle width="30" height="30" as="alternateBounds" />
          </mxGeometry>
        </mxCell>
        <mxCell id="_su7K73Y4DXP-7mO-JMW-319" value="alto" style="shape=partialRectangle;connectable=0;fillColor=none;top=0;left=0;bottom=0;right=0;align=left;spacingLeft=6;overflow=hidden;whiteSpace=wrap;html=1;" vertex="1" parent="_su7K73Y4DXP-7mO-JMW-317">
          <mxGeometry x="30" width="150" height="30" as="geometry">
            <mxRectangle width="150" height="30" as="alternateBounds" />
          </mxGeometry>
        </mxCell>
        <mxCell id="_su7K73Y4DXP-7mO-JMW-85" value="N : M" style="text;html=1;align=center;verticalAlign=middle;resizable=0;points=[];autosize=1;strokeColor=none;fillColor=none;" vertex="1" parent="1">
          <mxGeometry x="-62" y="770" width="47" height="26" as="geometry" />
        </mxCell>
        <mxCell id="_su7K73Y4DXP-7mO-JMW-86" value="Fabricantes" style="shape=table;startSize=30;container=1;collapsible=1;childLayout=tableLayout;fixedRows=1;rowLines=0;fontStyle=1;align=center;resizeLast=1;html=1;" vertex="1" parent="1">
          <mxGeometry x="360" y="347" width="180" height="120" as="geometry" />
        </mxCell>
        <mxCell id="_su7K73Y4DXP-7mO-JMW-87" value="" style="shape=tableRow;horizontal=0;startSize=0;swimlaneHead=0;swimlaneBody=0;fillColor=none;collapsible=0;dropTarget=0;points=[[0,0.5],[1,0.5]];portConstraint=eastwest;top=0;left=0;right=0;bottom=1;" vertex="1" parent="_su7K73Y4DXP-7mO-JMW-86">
          <mxGeometry y="30" width="180" height="30" as="geometry" />
        </mxCell>
        <mxCell id="_su7K73Y4DXP-7mO-JMW-88" value="PK" style="shape=partialRectangle;connectable=0;fillColor=none;top=0;left=0;bottom=0;right=0;fontStyle=1;overflow=hidden;whiteSpace=wrap;html=1;" vertex="1" parent="_su7K73Y4DXP-7mO-JMW-87">
          <mxGeometry width="30" height="30" as="geometry">
            <mxRectangle width="30" height="30" as="alternateBounds" />
          </mxGeometry>
        </mxCell>
        <mxCell id="_su7K73Y4DXP-7mO-JMW-89" value="id" style="shape=partialRectangle;connectable=0;fillColor=none;top=0;left=0;bottom=0;right=0;align=left;spacingLeft=6;fontStyle=5;overflow=hidden;whiteSpace=wrap;html=1;" vertex="1" parent="_su7K73Y4DXP-7mO-JMW-87">
          <mxGeometry x="30" width="150" height="30" as="geometry">
            <mxRectangle width="150" height="30" as="alternateBounds" />
          </mxGeometry>
        </mxCell>
        <mxCell id="_su7K73Y4DXP-7mO-JMW-90" value="" style="shape=tableRow;horizontal=0;startSize=0;swimlaneHead=0;swimlaneBody=0;fillColor=none;collapsible=0;dropTarget=0;points=[[0,0.5],[1,0.5]];portConstraint=eastwest;top=0;left=0;right=0;bottom=0;" vertex="1" parent="_su7K73Y4DXP-7mO-JMW-86">
          <mxGeometry y="60" width="180" height="30" as="geometry" />
        </mxCell>
        <mxCell id="_su7K73Y4DXP-7mO-JMW-91" value="" style="shape=partialRectangle;connectable=0;fillColor=none;top=0;left=0;bottom=0;right=0;editable=1;overflow=hidden;whiteSpace=wrap;html=1;" vertex="1" parent="_su7K73Y4DXP-7mO-JMW-90">
          <mxGeometry width="30" height="30" as="geometry">
            <mxRectangle width="30" height="30" as="alternateBounds" />
          </mxGeometry>
        </mxCell>
        <mxCell id="_su7K73Y4DXP-7mO-JMW-92" value="nombre" style="shape=partialRectangle;connectable=0;fillColor=none;top=0;left=0;bottom=0;right=0;align=left;spacingLeft=6;overflow=hidden;whiteSpace=wrap;html=1;" vertex="1" parent="_su7K73Y4DXP-7mO-JMW-90">
          <mxGeometry x="30" width="150" height="30" as="geometry">
            <mxRectangle width="150" height="30" as="alternateBounds" />
          </mxGeometry>
        </mxCell>
        <mxCell id="_su7K73Y4DXP-7mO-JMW-93" value="" style="shape=tableRow;horizontal=0;startSize=0;swimlaneHead=0;swimlaneBody=0;fillColor=none;collapsible=0;dropTarget=0;points=[[0,0.5],[1,0.5]];portConstraint=eastwest;top=0;left=0;right=0;bottom=0;" vertex="1" parent="_su7K73Y4DXP-7mO-JMW-86">
          <mxGeometry y="90" width="180" height="30" as="geometry" />
        </mxCell>
        <mxCell id="_su7K73Y4DXP-7mO-JMW-94" value="" style="shape=partialRectangle;connectable=0;fillColor=none;top=0;left=0;bottom=0;right=0;editable=1;overflow=hidden;whiteSpace=wrap;html=1;" vertex="1" parent="_su7K73Y4DXP-7mO-JMW-93">
          <mxGeometry width="30" height="30" as="geometry">
            <mxRectangle width="30" height="30" as="alternateBounds" />
          </mxGeometry>
        </mxCell>
        <mxCell id="_su7K73Y4DXP-7mO-JMW-95" value="direccion" style="shape=partialRectangle;connectable=0;fillColor=none;top=0;left=0;bottom=0;right=0;align=left;spacingLeft=6;overflow=hidden;whiteSpace=wrap;html=1;" vertex="1" parent="_su7K73Y4DXP-7mO-JMW-93">
          <mxGeometry x="30" width="150" height="30" as="geometry">
            <mxRectangle width="150" height="30" as="alternateBounds" />
          </mxGeometry>
        </mxCell>
        <mxCell id="_su7K73Y4DXP-7mO-JMW-99" value="Cocinas" style="shape=table;startSize=30;container=1;collapsible=1;childLayout=tableLayout;fixedRows=1;rowLines=0;fontStyle=1;align=center;resizeLast=1;html=1;" vertex="1" parent="1">
          <mxGeometry x="580" y="-153" width="180" height="150" as="geometry" />
        </mxCell>
        <mxCell id="_su7K73Y4DXP-7mO-JMW-100" value="" style="shape=tableRow;horizontal=0;startSize=0;swimlaneHead=0;swimlaneBody=0;fillColor=none;collapsible=0;dropTarget=0;points=[[0,0.5],[1,0.5]];portConstraint=eastwest;top=0;left=0;right=0;bottom=1;" vertex="1" parent="_su7K73Y4DXP-7mO-JMW-99">
          <mxGeometry y="30" width="180" height="30" as="geometry" />
        </mxCell>
        <mxCell id="_su7K73Y4DXP-7mO-JMW-101" value="PK" style="shape=partialRectangle;connectable=0;fillColor=none;top=0;left=0;bottom=0;right=0;fontStyle=1;overflow=hidden;whiteSpace=wrap;html=1;" vertex="1" parent="_su7K73Y4DXP-7mO-JMW-100">
          <mxGeometry width="30" height="30" as="geometry">
            <mxRectangle width="30" height="30" as="alternateBounds" />
          </mxGeometry>
        </mxCell>
        <mxCell id="_su7K73Y4DXP-7mO-JMW-102" value="codigo" style="shape=partialRectangle;connectable=0;fillColor=none;top=0;left=0;bottom=0;right=0;align=left;spacingLeft=6;fontStyle=5;overflow=hidden;whiteSpace=wrap;html=1;" vertex="1" parent="_su7K73Y4DXP-7mO-JMW-100">
          <mxGeometry x="30" width="150" height="30" as="geometry">
            <mxRectangle width="150" height="30" as="alternateBounds" />
          </mxGeometry>
        </mxCell>
        <mxCell id="_su7K73Y4DXP-7mO-JMW-410" value="" style="shape=tableRow;horizontal=0;startSize=0;swimlaneHead=0;swimlaneBody=0;fillColor=none;collapsible=0;dropTarget=0;points=[[0,0.5],[1,0.5]];portConstraint=eastwest;top=0;left=0;right=0;bottom=0;" vertex="1" parent="_su7K73Y4DXP-7mO-JMW-99">
          <mxGeometry y="60" width="180" height="30" as="geometry" />
        </mxCell>
        <mxCell id="_su7K73Y4DXP-7mO-JMW-411" value="FK" style="shape=partialRectangle;connectable=0;fillColor=none;top=0;left=0;bottom=0;right=0;fontStyle=0;overflow=hidden;whiteSpace=wrap;html=1;" vertex="1" parent="_su7K73Y4DXP-7mO-JMW-410">
          <mxGeometry width="30" height="30" as="geometry">
            <mxRectangle width="30" height="30" as="alternateBounds" />
          </mxGeometry>
        </mxCell>
        <mxCell id="_su7K73Y4DXP-7mO-JMW-412" value="id_distribuidor" style="shape=partialRectangle;connectable=0;fillColor=none;top=0;left=0;bottom=0;right=0;align=left;spacingLeft=6;fontStyle=0;overflow=hidden;whiteSpace=wrap;html=1;" vertex="1" parent="_su7K73Y4DXP-7mO-JMW-410">
          <mxGeometry x="30" width="150" height="30" as="geometry">
            <mxRectangle width="150" height="30" as="alternateBounds" />
          </mxGeometry>
        </mxCell>
        <mxCell id="_su7K73Y4DXP-7mO-JMW-103" value="" style="shape=tableRow;horizontal=0;startSize=0;swimlaneHead=0;swimlaneBody=0;fillColor=none;collapsible=0;dropTarget=0;points=[[0,0.5],[1,0.5]];portConstraint=eastwest;top=0;left=0;right=0;bottom=0;" vertex="1" parent="_su7K73Y4DXP-7mO-JMW-99">
          <mxGeometry y="90" width="180" height="30" as="geometry" />
        </mxCell>
        <mxCell id="_su7K73Y4DXP-7mO-JMW-104" value="" style="shape=partialRectangle;connectable=0;fillColor=none;top=0;left=0;bottom=0;right=0;editable=1;overflow=hidden;whiteSpace=wrap;html=1;" vertex="1" parent="_su7K73Y4DXP-7mO-JMW-103">
          <mxGeometry width="30" height="30" as="geometry">
            <mxRectangle width="30" height="30" as="alternateBounds" />
          </mxGeometry>
        </mxCell>
        <mxCell id="_su7K73Y4DXP-7mO-JMW-105" value="numero_muebles" style="shape=partialRectangle;connectable=0;fillColor=none;top=0;left=0;bottom=0;right=0;align=left;spacingLeft=6;overflow=hidden;whiteSpace=wrap;html=1;" vertex="1" parent="_su7K73Y4DXP-7mO-JMW-103">
          <mxGeometry x="30" width="150" height="30" as="geometry">
            <mxRectangle width="150" height="30" as="alternateBounds" />
          </mxGeometry>
        </mxCell>
        <mxCell id="_su7K73Y4DXP-7mO-JMW-414" value="" style="shape=tableRow;horizontal=0;startSize=0;swimlaneHead=0;swimlaneBody=0;fillColor=none;collapsible=0;dropTarget=0;points=[[0,0.5],[1,0.5]];portConstraint=eastwest;top=0;left=0;right=0;bottom=0;" vertex="1" parent="_su7K73Y4DXP-7mO-JMW-99">
          <mxGeometry y="120" width="180" height="30" as="geometry" />
        </mxCell>
        <mxCell id="_su7K73Y4DXP-7mO-JMW-415" value="" style="shape=partialRectangle;connectable=0;fillColor=none;top=0;left=0;bottom=0;right=0;editable=1;overflow=hidden;whiteSpace=wrap;html=1;" vertex="1" parent="_su7K73Y4DXP-7mO-JMW-414">
          <mxGeometry width="30" height="30" as="geometry">
            <mxRectangle width="30" height="30" as="alternateBounds" />
          </mxGeometry>
        </mxCell>
        <mxCell id="_su7K73Y4DXP-7mO-JMW-416" value="fecha_venta" style="shape=partialRectangle;connectable=0;fillColor=none;top=0;left=0;bottom=0;right=0;align=left;spacingLeft=6;overflow=hidden;whiteSpace=wrap;html=1;" vertex="1" parent="_su7K73Y4DXP-7mO-JMW-414">
          <mxGeometry x="30" width="150" height="30" as="geometry">
            <mxRectangle width="150" height="30" as="alternateBounds" />
          </mxGeometry>
        </mxCell>
        <mxCell id="_su7K73Y4DXP-7mO-JMW-112" value="Distribuidores_Fabricantes" style="shape=table;startSize=30;container=1;collapsible=1;childLayout=tableLayout;fixedRows=1;rowLines=0;fontStyle=1;align=center;resizeLast=1;html=1;whiteSpace=wrap;" vertex="1" parent="1">
          <mxGeometry x="360" y="157" width="180" height="150" as="geometry" />
        </mxCell>
        <mxCell id="_su7K73Y4DXP-7mO-JMW-113" value="" style="shape=tableRow;horizontal=0;startSize=0;swimlaneHead=0;swimlaneBody=0;fillColor=none;collapsible=0;dropTarget=0;points=[[0,0.5],[1,0.5]];portConstraint=eastwest;top=0;left=0;right=0;bottom=0;html=1;" vertex="1" parent="_su7K73Y4DXP-7mO-JMW-112">
          <mxGeometry y="30" width="180" height="30" as="geometry" />
        </mxCell>
        <mxCell id="_su7K73Y4DXP-7mO-JMW-114" value="PK,FK1" style="shape=partialRectangle;connectable=0;fillColor=none;top=0;left=0;bottom=0;right=0;fontStyle=1;overflow=hidden;html=1;whiteSpace=wrap;" vertex="1" parent="_su7K73Y4DXP-7mO-JMW-113">
          <mxGeometry width="60" height="30" as="geometry">
            <mxRectangle width="60" height="30" as="alternateBounds" />
          </mxGeometry>
        </mxCell>
        <mxCell id="_su7K73Y4DXP-7mO-JMW-115" value="id_distribuidor" style="shape=partialRectangle;connectable=0;fillColor=none;top=0;left=0;bottom=0;right=0;align=left;spacingLeft=6;fontStyle=5;overflow=hidden;html=1;whiteSpace=wrap;" vertex="1" parent="_su7K73Y4DXP-7mO-JMW-113">
          <mxGeometry x="60" width="120" height="30" as="geometry">
            <mxRectangle width="120" height="30" as="alternateBounds" />
          </mxGeometry>
        </mxCell>
        <mxCell id="_su7K73Y4DXP-7mO-JMW-116" value="" style="shape=tableRow;horizontal=0;startSize=0;swimlaneHead=0;swimlaneBody=0;fillColor=none;collapsible=0;dropTarget=0;points=[[0,0.5],[1,0.5]];portConstraint=eastwest;top=0;left=0;right=0;bottom=1;html=1;" vertex="1" parent="_su7K73Y4DXP-7mO-JMW-112">
          <mxGeometry y="60" width="180" height="30" as="geometry" />
        </mxCell>
        <mxCell id="_su7K73Y4DXP-7mO-JMW-117" value="PK,FK2" style="shape=partialRectangle;connectable=0;fillColor=none;top=0;left=0;bottom=0;right=0;fontStyle=1;overflow=hidden;html=1;whiteSpace=wrap;" vertex="1" parent="_su7K73Y4DXP-7mO-JMW-116">
          <mxGeometry width="60" height="30" as="geometry">
            <mxRectangle width="60" height="30" as="alternateBounds" />
          </mxGeometry>
        </mxCell>
        <mxCell id="_su7K73Y4DXP-7mO-JMW-118" value="id_fabricante" style="shape=partialRectangle;connectable=0;fillColor=none;top=0;left=0;bottom=0;right=0;align=left;spacingLeft=6;fontStyle=5;overflow=hidden;html=1;whiteSpace=wrap;" vertex="1" parent="_su7K73Y4DXP-7mO-JMW-116">
          <mxGeometry x="60" width="120" height="30" as="geometry">
            <mxRectangle width="120" height="30" as="alternateBounds" />
          </mxGeometry>
        </mxCell>
        <mxCell id="_su7K73Y4DXP-7mO-JMW-119" value="" style="shape=tableRow;horizontal=0;startSize=0;swimlaneHead=0;swimlaneBody=0;fillColor=none;collapsible=0;dropTarget=0;points=[[0,0.5],[1,0.5]];portConstraint=eastwest;top=0;left=0;right=0;bottom=0;html=1;" vertex="1" parent="_su7K73Y4DXP-7mO-JMW-112">
          <mxGeometry y="90" width="180" height="30" as="geometry" />
        </mxCell>
        <mxCell id="_su7K73Y4DXP-7mO-JMW-120" value="" style="shape=partialRectangle;connectable=0;fillColor=none;top=0;left=0;bottom=0;right=0;editable=1;overflow=hidden;html=1;whiteSpace=wrap;" vertex="1" parent="_su7K73Y4DXP-7mO-JMW-119">
          <mxGeometry width="60" height="30" as="geometry">
            <mxRectangle width="60" height="30" as="alternateBounds" />
          </mxGeometry>
        </mxCell>
        <mxCell id="_su7K73Y4DXP-7mO-JMW-121" value="Row 3" style="shape=partialRectangle;connectable=0;fillColor=none;top=0;left=0;bottom=0;right=0;align=left;spacingLeft=6;overflow=hidden;html=1;whiteSpace=wrap;" vertex="1" parent="_su7K73Y4DXP-7mO-JMW-119">
          <mxGeometry x="60" width="120" height="30" as="geometry">
            <mxRectangle width="120" height="30" as="alternateBounds" />
          </mxGeometry>
        </mxCell>
        <mxCell id="_su7K73Y4DXP-7mO-JMW-122" value="" style="shape=tableRow;horizontal=0;startSize=0;swimlaneHead=0;swimlaneBody=0;fillColor=none;collapsible=0;dropTarget=0;points=[[0,0.5],[1,0.5]];portConstraint=eastwest;top=0;left=0;right=0;bottom=0;html=1;" vertex="1" parent="_su7K73Y4DXP-7mO-JMW-112">
          <mxGeometry y="120" width="180" height="30" as="geometry" />
        </mxCell>
        <mxCell id="_su7K73Y4DXP-7mO-JMW-123" value="" style="shape=partialRectangle;connectable=0;fillColor=none;top=0;left=0;bottom=0;right=0;editable=1;overflow=hidden;html=1;whiteSpace=wrap;" vertex="1" parent="_su7K73Y4DXP-7mO-JMW-122">
          <mxGeometry width="60" height="30" as="geometry">
            <mxRectangle width="60" height="30" as="alternateBounds" />
          </mxGeometry>
        </mxCell>
        <mxCell id="_su7K73Y4DXP-7mO-JMW-124" value="Row 4" style="shape=partialRectangle;connectable=0;fillColor=none;top=0;left=0;bottom=0;right=0;align=left;spacingLeft=6;overflow=hidden;html=1;whiteSpace=wrap;" vertex="1" parent="_su7K73Y4DXP-7mO-JMW-122">
          <mxGeometry x="60" width="120" height="30" as="geometry">
            <mxRectangle width="120" height="30" as="alternateBounds" />
          </mxGeometry>
        </mxCell>
        <mxCell id="_su7K73Y4DXP-7mO-JMW-125" value="Distribuidores" style="shape=table;startSize=30;container=1;collapsible=1;childLayout=tableLayout;fixedRows=1;rowLines=0;fontStyle=1;align=center;resizeLast=1;html=1;" vertex="1" parent="1">
          <mxGeometry x="360" y="-33" width="180" height="150" as="geometry" />
        </mxCell>
        <mxCell id="_su7K73Y4DXP-7mO-JMW-126" value="" style="shape=tableRow;horizontal=0;startSize=0;swimlaneHead=0;swimlaneBody=0;fillColor=none;collapsible=0;dropTarget=0;points=[[0,0.5],[1,0.5]];portConstraint=eastwest;top=0;left=0;right=0;bottom=1;" vertex="1" parent="_su7K73Y4DXP-7mO-JMW-125">
          <mxGeometry y="30" width="180" height="30" as="geometry" />
        </mxCell>
        <mxCell id="_su7K73Y4DXP-7mO-JMW-127" value="PK" style="shape=partialRectangle;connectable=0;fillColor=none;top=0;left=0;bottom=0;right=0;fontStyle=1;overflow=hidden;whiteSpace=wrap;html=1;" vertex="1" parent="_su7K73Y4DXP-7mO-JMW-126">
          <mxGeometry width="30" height="30" as="geometry">
            <mxRectangle width="30" height="30" as="alternateBounds" />
          </mxGeometry>
        </mxCell>
        <mxCell id="_su7K73Y4DXP-7mO-JMW-128" value="id" style="shape=partialRectangle;connectable=0;fillColor=none;top=0;left=0;bottom=0;right=0;align=left;spacingLeft=6;fontStyle=5;overflow=hidden;whiteSpace=wrap;html=1;" vertex="1" parent="_su7K73Y4DXP-7mO-JMW-126">
          <mxGeometry x="30" width="150" height="30" as="geometry">
            <mxRectangle width="150" height="30" as="alternateBounds" />
          </mxGeometry>
        </mxCell>
        <mxCell id="_su7K73Y4DXP-7mO-JMW-129" value="" style="shape=tableRow;horizontal=0;startSize=0;swimlaneHead=0;swimlaneBody=0;fillColor=none;collapsible=0;dropTarget=0;points=[[0,0.5],[1,0.5]];portConstraint=eastwest;top=0;left=0;right=0;bottom=0;" vertex="1" parent="_su7K73Y4DXP-7mO-JMW-125">
          <mxGeometry y="60" width="180" height="30" as="geometry" />
        </mxCell>
        <mxCell id="_su7K73Y4DXP-7mO-JMW-130" value="" style="shape=partialRectangle;connectable=0;fillColor=none;top=0;left=0;bottom=0;right=0;editable=1;overflow=hidden;whiteSpace=wrap;html=1;" vertex="1" parent="_su7K73Y4DXP-7mO-JMW-129">
          <mxGeometry width="30" height="30" as="geometry">
            <mxRectangle width="30" height="30" as="alternateBounds" />
          </mxGeometry>
        </mxCell>
        <mxCell id="_su7K73Y4DXP-7mO-JMW-131" value="nombre" style="shape=partialRectangle;connectable=0;fillColor=none;top=0;left=0;bottom=0;right=0;align=left;spacingLeft=6;overflow=hidden;whiteSpace=wrap;html=1;" vertex="1" parent="_su7K73Y4DXP-7mO-JMW-129">
          <mxGeometry x="30" width="150" height="30" as="geometry">
            <mxRectangle width="150" height="30" as="alternateBounds" />
          </mxGeometry>
        </mxCell>
        <mxCell id="_su7K73Y4DXP-7mO-JMW-132" value="" style="shape=tableRow;horizontal=0;startSize=0;swimlaneHead=0;swimlaneBody=0;fillColor=none;collapsible=0;dropTarget=0;points=[[0,0.5],[1,0.5]];portConstraint=eastwest;top=0;left=0;right=0;bottom=0;" vertex="1" parent="_su7K73Y4DXP-7mO-JMW-125">
          <mxGeometry y="90" width="180" height="30" as="geometry" />
        </mxCell>
        <mxCell id="_su7K73Y4DXP-7mO-JMW-133" value="" style="shape=partialRectangle;connectable=0;fillColor=none;top=0;left=0;bottom=0;right=0;editable=1;overflow=hidden;whiteSpace=wrap;html=1;" vertex="1" parent="_su7K73Y4DXP-7mO-JMW-132">
          <mxGeometry width="30" height="30" as="geometry">
            <mxRectangle width="30" height="30" as="alternateBounds" />
          </mxGeometry>
        </mxCell>
        <mxCell id="_su7K73Y4DXP-7mO-JMW-134" value="direccion" style="shape=partialRectangle;connectable=0;fillColor=none;top=0;left=0;bottom=0;right=0;align=left;spacingLeft=6;overflow=hidden;whiteSpace=wrap;html=1;" vertex="1" parent="_su7K73Y4DXP-7mO-JMW-132">
          <mxGeometry x="30" width="150" height="30" as="geometry">
            <mxRectangle width="150" height="30" as="alternateBounds" />
          </mxGeometry>
        </mxCell>
        <mxCell id="_su7K73Y4DXP-7mO-JMW-398" value="" style="shape=tableRow;horizontal=0;startSize=0;swimlaneHead=0;swimlaneBody=0;fillColor=none;collapsible=0;dropTarget=0;points=[[0,0.5],[1,0.5]];portConstraint=eastwest;top=0;left=0;right=0;bottom=0;" vertex="1" parent="_su7K73Y4DXP-7mO-JMW-125">
          <mxGeometry y="120" width="180" height="30" as="geometry" />
        </mxCell>
        <mxCell id="_su7K73Y4DXP-7mO-JMW-399" value="" style="shape=partialRectangle;connectable=0;fillColor=none;top=0;left=0;bottom=0;right=0;editable=1;overflow=hidden;whiteSpace=wrap;html=1;" vertex="1" parent="_su7K73Y4DXP-7mO-JMW-398">
          <mxGeometry width="30" height="30" as="geometry">
            <mxRectangle width="30" height="30" as="alternateBounds" />
          </mxGeometry>
        </mxCell>
        <mxCell id="_su7K73Y4DXP-7mO-JMW-400" value="cede" style="shape=partialRectangle;connectable=0;fillColor=none;top=0;left=0;bottom=0;right=0;align=left;spacingLeft=6;overflow=hidden;whiteSpace=wrap;html=1;" vertex="1" parent="_su7K73Y4DXP-7mO-JMW-398">
          <mxGeometry x="30" width="150" height="30" as="geometry">
            <mxRectangle width="150" height="30" as="alternateBounds" />
          </mxGeometry>
        </mxCell>
        <mxCell id="_su7K73Y4DXP-7mO-JMW-150" value="Cocinas_Montadores" style="shape=table;startSize=30;container=1;collapsible=1;childLayout=tableLayout;fixedRows=1;rowLines=0;fontStyle=1;align=center;resizeLast=1;html=1;whiteSpace=wrap;" vertex="1" parent="1">
          <mxGeometry x="360" y="-293" width="180" height="90" as="geometry" />
        </mxCell>
        <mxCell id="_su7K73Y4DXP-7mO-JMW-151" value="" style="shape=tableRow;horizontal=0;startSize=0;swimlaneHead=0;swimlaneBody=0;fillColor=none;collapsible=0;dropTarget=0;points=[[0,0.5],[1,0.5]];portConstraint=eastwest;top=0;left=0;right=0;bottom=0;html=1;" vertex="1" parent="_su7K73Y4DXP-7mO-JMW-150">
          <mxGeometry y="30" width="180" height="30" as="geometry" />
        </mxCell>
        <mxCell id="_su7K73Y4DXP-7mO-JMW-152" value="PK,FK1" style="shape=partialRectangle;connectable=0;fillColor=none;top=0;left=0;bottom=0;right=0;fontStyle=1;overflow=hidden;html=1;whiteSpace=wrap;" vertex="1" parent="_su7K73Y4DXP-7mO-JMW-151">
          <mxGeometry width="60" height="30" as="geometry">
            <mxRectangle width="60" height="30" as="alternateBounds" />
          </mxGeometry>
        </mxCell>
        <mxCell id="_su7K73Y4DXP-7mO-JMW-153" value="codigo_cocina" style="shape=partialRectangle;connectable=0;fillColor=none;top=0;left=0;bottom=0;right=0;align=left;spacingLeft=6;fontStyle=5;overflow=hidden;html=1;whiteSpace=wrap;" vertex="1" parent="_su7K73Y4DXP-7mO-JMW-151">
          <mxGeometry x="60" width="120" height="30" as="geometry">
            <mxRectangle width="120" height="30" as="alternateBounds" />
          </mxGeometry>
        </mxCell>
        <mxCell id="_su7K73Y4DXP-7mO-JMW-154" value="" style="shape=tableRow;horizontal=0;startSize=0;swimlaneHead=0;swimlaneBody=0;fillColor=none;collapsible=0;dropTarget=0;points=[[0,0.5],[1,0.5]];portConstraint=eastwest;top=0;left=0;right=0;bottom=1;html=1;" vertex="1" parent="_su7K73Y4DXP-7mO-JMW-150">
          <mxGeometry y="60" width="180" height="30" as="geometry" />
        </mxCell>
        <mxCell id="_su7K73Y4DXP-7mO-JMW-155" value="PK,FK2" style="shape=partialRectangle;connectable=0;fillColor=none;top=0;left=0;bottom=0;right=0;fontStyle=1;overflow=hidden;html=1;whiteSpace=wrap;" vertex="1" parent="_su7K73Y4DXP-7mO-JMW-154">
          <mxGeometry width="60" height="30" as="geometry">
            <mxRectangle width="60" height="30" as="alternateBounds" />
          </mxGeometry>
        </mxCell>
        <mxCell id="_su7K73Y4DXP-7mO-JMW-156" value="nif_montador" style="shape=partialRectangle;connectable=0;fillColor=none;top=0;left=0;bottom=0;right=0;align=left;spacingLeft=6;fontStyle=5;overflow=hidden;html=1;whiteSpace=wrap;" vertex="1" parent="_su7K73Y4DXP-7mO-JMW-154">
          <mxGeometry x="60" width="120" height="30" as="geometry">
            <mxRectangle width="120" height="30" as="alternateBounds" />
          </mxGeometry>
        </mxCell>
        <mxCell id="_su7K73Y4DXP-7mO-JMW-163" value="Montadores" style="shape=table;startSize=30;container=1;collapsible=1;childLayout=tableLayout;fixedRows=1;rowLines=0;fontStyle=1;align=center;resizeLast=1;html=1;" vertex="1" parent="1">
          <mxGeometry x="140" y="-263" width="180" height="150" as="geometry" />
        </mxCell>
        <mxCell id="_su7K73Y4DXP-7mO-JMW-164" value="" style="shape=tableRow;horizontal=0;startSize=0;swimlaneHead=0;swimlaneBody=0;fillColor=none;collapsible=0;dropTarget=0;points=[[0,0.5],[1,0.5]];portConstraint=eastwest;top=0;left=0;right=0;bottom=1;" vertex="1" parent="_su7K73Y4DXP-7mO-JMW-163">
          <mxGeometry y="30" width="180" height="30" as="geometry" />
        </mxCell>
        <mxCell id="_su7K73Y4DXP-7mO-JMW-165" value="PK" style="shape=partialRectangle;connectable=0;fillColor=none;top=0;left=0;bottom=0;right=0;fontStyle=1;overflow=hidden;whiteSpace=wrap;html=1;" vertex="1" parent="_su7K73Y4DXP-7mO-JMW-164">
          <mxGeometry width="30" height="30" as="geometry">
            <mxRectangle width="30" height="30" as="alternateBounds" />
          </mxGeometry>
        </mxCell>
        <mxCell id="_su7K73Y4DXP-7mO-JMW-166" value="nif" style="shape=partialRectangle;connectable=0;fillColor=none;top=0;left=0;bottom=0;right=0;align=left;spacingLeft=6;fontStyle=5;overflow=hidden;whiteSpace=wrap;html=1;" vertex="1" parent="_su7K73Y4DXP-7mO-JMW-164">
          <mxGeometry x="30" width="150" height="30" as="geometry">
            <mxRectangle width="150" height="30" as="alternateBounds" />
          </mxGeometry>
        </mxCell>
        <mxCell id="_su7K73Y4DXP-7mO-JMW-424" value="" style="shape=tableRow;horizontal=0;startSize=0;swimlaneHead=0;swimlaneBody=0;fillColor=none;collapsible=0;dropTarget=0;points=[[0,0.5],[1,0.5]];portConstraint=eastwest;top=0;left=0;right=0;bottom=0;" vertex="1" parent="_su7K73Y4DXP-7mO-JMW-163">
          <mxGeometry y="60" width="180" height="30" as="geometry" />
        </mxCell>
        <mxCell id="_su7K73Y4DXP-7mO-JMW-425" value="FK" style="shape=partialRectangle;connectable=0;fillColor=none;top=0;left=0;bottom=0;right=0;fontStyle=0;overflow=hidden;whiteSpace=wrap;html=1;" vertex="1" parent="_su7K73Y4DXP-7mO-JMW-424">
          <mxGeometry width="30" height="30" as="geometry">
            <mxRectangle width="30" height="30" as="alternateBounds" />
          </mxGeometry>
        </mxCell>
        <mxCell id="_su7K73Y4DXP-7mO-JMW-426" value="telefono" style="shape=partialRectangle;connectable=0;fillColor=none;top=0;left=0;bottom=0;right=0;align=left;spacingLeft=6;fontStyle=0;overflow=hidden;whiteSpace=wrap;html=1;" vertex="1" parent="_su7K73Y4DXP-7mO-JMW-424">
          <mxGeometry x="30" width="150" height="30" as="geometry">
            <mxRectangle width="150" height="30" as="alternateBounds" />
          </mxGeometry>
        </mxCell>
        <mxCell id="_su7K73Y4DXP-7mO-JMW-167" value="" style="shape=tableRow;horizontal=0;startSize=0;swimlaneHead=0;swimlaneBody=0;fillColor=none;collapsible=0;dropTarget=0;points=[[0,0.5],[1,0.5]];portConstraint=eastwest;top=0;left=0;right=0;bottom=0;" vertex="1" parent="_su7K73Y4DXP-7mO-JMW-163">
          <mxGeometry y="90" width="180" height="30" as="geometry" />
        </mxCell>
        <mxCell id="_su7K73Y4DXP-7mO-JMW-168" value="" style="shape=partialRectangle;connectable=0;fillColor=none;top=0;left=0;bottom=0;right=0;editable=1;overflow=hidden;whiteSpace=wrap;html=1;" vertex="1" parent="_su7K73Y4DXP-7mO-JMW-167">
          <mxGeometry width="30" height="30" as="geometry">
            <mxRectangle width="30" height="30" as="alternateBounds" />
          </mxGeometry>
        </mxCell>
        <mxCell id="_su7K73Y4DXP-7mO-JMW-169" value="nombre" style="shape=partialRectangle;connectable=0;fillColor=none;top=0;left=0;bottom=0;right=0;align=left;spacingLeft=6;overflow=hidden;whiteSpace=wrap;html=1;" vertex="1" parent="_su7K73Y4DXP-7mO-JMW-167">
          <mxGeometry x="30" width="150" height="30" as="geometry">
            <mxRectangle width="150" height="30" as="alternateBounds" />
          </mxGeometry>
        </mxCell>
        <mxCell id="_su7K73Y4DXP-7mO-JMW-170" value="" style="shape=tableRow;horizontal=0;startSize=0;swimlaneHead=0;swimlaneBody=0;fillColor=none;collapsible=0;dropTarget=0;points=[[0,0.5],[1,0.5]];portConstraint=eastwest;top=0;left=0;right=0;bottom=0;" vertex="1" parent="_su7K73Y4DXP-7mO-JMW-163">
          <mxGeometry y="120" width="180" height="30" as="geometry" />
        </mxCell>
        <mxCell id="_su7K73Y4DXP-7mO-JMW-171" value="" style="shape=partialRectangle;connectable=0;fillColor=none;top=0;left=0;bottom=0;right=0;editable=1;overflow=hidden;whiteSpace=wrap;html=1;" vertex="1" parent="_su7K73Y4DXP-7mO-JMW-170">
          <mxGeometry width="30" height="30" as="geometry">
            <mxRectangle width="30" height="30" as="alternateBounds" />
          </mxGeometry>
        </mxCell>
        <mxCell id="_su7K73Y4DXP-7mO-JMW-172" value="direccion" style="shape=partialRectangle;connectable=0;fillColor=none;top=0;left=0;bottom=0;right=0;align=left;spacingLeft=6;overflow=hidden;whiteSpace=wrap;html=1;" vertex="1" parent="_su7K73Y4DXP-7mO-JMW-170">
          <mxGeometry x="30" width="150" height="30" as="geometry">
            <mxRectangle width="150" height="30" as="alternateBounds" />
          </mxGeometry>
        </mxCell>
        <mxCell id="_su7K73Y4DXP-7mO-JMW-176" value="Clientes_Cocinas" style="shape=table;startSize=30;container=1;collapsible=1;childLayout=tableLayout;fixedRows=1;rowLines=0;fontStyle=1;align=center;resizeLast=1;html=1;whiteSpace=wrap;" vertex="1" parent="1">
          <mxGeometry x="360" y="-163" width="180" height="90" as="geometry" />
        </mxCell>
        <mxCell id="_su7K73Y4DXP-7mO-JMW-177" value="" style="shape=tableRow;horizontal=0;startSize=0;swimlaneHead=0;swimlaneBody=0;fillColor=none;collapsible=0;dropTarget=0;points=[[0,0.5],[1,0.5]];portConstraint=eastwest;top=0;left=0;right=0;bottom=0;html=1;" vertex="1" parent="_su7K73Y4DXP-7mO-JMW-176">
          <mxGeometry y="30" width="180" height="30" as="geometry" />
        </mxCell>
        <mxCell id="_su7K73Y4DXP-7mO-JMW-178" value="PK,FK1" style="shape=partialRectangle;connectable=0;fillColor=none;top=0;left=0;bottom=0;right=0;fontStyle=1;overflow=hidden;html=1;whiteSpace=wrap;" vertex="1" parent="_su7K73Y4DXP-7mO-JMW-177">
          <mxGeometry width="60" height="30" as="geometry">
            <mxRectangle width="60" height="30" as="alternateBounds" />
          </mxGeometry>
        </mxCell>
        <mxCell id="_su7K73Y4DXP-7mO-JMW-179" value="codigo_cocina" style="shape=partialRectangle;connectable=0;fillColor=none;top=0;left=0;bottom=0;right=0;align=left;spacingLeft=6;fontStyle=5;overflow=hidden;html=1;whiteSpace=wrap;" vertex="1" parent="_su7K73Y4DXP-7mO-JMW-177">
          <mxGeometry x="60" width="120" height="30" as="geometry">
            <mxRectangle width="120" height="30" as="alternateBounds" />
          </mxGeometry>
        </mxCell>
        <mxCell id="_su7K73Y4DXP-7mO-JMW-180" value="" style="shape=tableRow;horizontal=0;startSize=0;swimlaneHead=0;swimlaneBody=0;fillColor=none;collapsible=0;dropTarget=0;points=[[0,0.5],[1,0.5]];portConstraint=eastwest;top=0;left=0;right=0;bottom=1;html=1;" vertex="1" parent="_su7K73Y4DXP-7mO-JMW-176">
          <mxGeometry y="60" width="180" height="30" as="geometry" />
        </mxCell>
        <mxCell id="_su7K73Y4DXP-7mO-JMW-181" value="PK,FK2" style="shape=partialRectangle;connectable=0;fillColor=none;top=0;left=0;bottom=0;right=0;fontStyle=1;overflow=hidden;html=1;whiteSpace=wrap;" vertex="1" parent="_su7K73Y4DXP-7mO-JMW-180">
          <mxGeometry width="60" height="30" as="geometry">
            <mxRectangle width="60" height="30" as="alternateBounds" />
          </mxGeometry>
        </mxCell>
        <mxCell id="_su7K73Y4DXP-7mO-JMW-182" value="nif_cliente" style="shape=partialRectangle;connectable=0;fillColor=none;top=0;left=0;bottom=0;right=0;align=left;spacingLeft=6;fontStyle=5;overflow=hidden;html=1;whiteSpace=wrap;" vertex="1" parent="_su7K73Y4DXP-7mO-JMW-180">
          <mxGeometry x="60" width="120" height="30" as="geometry">
            <mxRectangle width="120" height="30" as="alternateBounds" />
          </mxGeometry>
        </mxCell>
        <mxCell id="_su7K73Y4DXP-7mO-JMW-189" value="Clientes" style="shape=table;startSize=30;container=1;collapsible=1;childLayout=tableLayout;fixedRows=1;rowLines=0;fontStyle=1;align=center;resizeLast=1;html=1;" vertex="1" parent="1">
          <mxGeometry x="140" y="-73" width="180" height="150" as="geometry" />
        </mxCell>
        <mxCell id="_su7K73Y4DXP-7mO-JMW-190" value="" style="shape=tableRow;horizontal=0;startSize=0;swimlaneHead=0;swimlaneBody=0;fillColor=none;collapsible=0;dropTarget=0;points=[[0,0.5],[1,0.5]];portConstraint=eastwest;top=0;left=0;right=0;bottom=1;" vertex="1" parent="_su7K73Y4DXP-7mO-JMW-189">
          <mxGeometry y="30" width="180" height="30" as="geometry" />
        </mxCell>
        <mxCell id="_su7K73Y4DXP-7mO-JMW-191" value="PK" style="shape=partialRectangle;connectable=0;fillColor=none;top=0;left=0;bottom=0;right=0;fontStyle=1;overflow=hidden;whiteSpace=wrap;html=1;" vertex="1" parent="_su7K73Y4DXP-7mO-JMW-190">
          <mxGeometry width="30" height="30" as="geometry">
            <mxRectangle width="30" height="30" as="alternateBounds" />
          </mxGeometry>
        </mxCell>
        <mxCell id="_su7K73Y4DXP-7mO-JMW-192" value="nif" style="shape=partialRectangle;connectable=0;fillColor=none;top=0;left=0;bottom=0;right=0;align=left;spacingLeft=6;fontStyle=5;overflow=hidden;whiteSpace=wrap;html=1;" vertex="1" parent="_su7K73Y4DXP-7mO-JMW-190">
          <mxGeometry x="30" width="150" height="30" as="geometry">
            <mxRectangle width="150" height="30" as="alternateBounds" />
          </mxGeometry>
        </mxCell>
        <mxCell id="_su7K73Y4DXP-7mO-JMW-420" value="" style="shape=tableRow;horizontal=0;startSize=0;swimlaneHead=0;swimlaneBody=0;fillColor=none;collapsible=0;dropTarget=0;points=[[0,0.5],[1,0.5]];portConstraint=eastwest;top=0;left=0;right=0;bottom=0;" vertex="1" parent="_su7K73Y4DXP-7mO-JMW-189">
          <mxGeometry y="60" width="180" height="30" as="geometry" />
        </mxCell>
        <mxCell id="_su7K73Y4DXP-7mO-JMW-421" value="FK" style="shape=partialRectangle;connectable=0;fillColor=none;top=0;left=0;bottom=0;right=0;fontStyle=0;overflow=hidden;whiteSpace=wrap;html=1;" vertex="1" parent="_su7K73Y4DXP-7mO-JMW-420">
          <mxGeometry width="30" height="30" as="geometry">
            <mxRectangle width="30" height="30" as="alternateBounds" />
          </mxGeometry>
        </mxCell>
        <mxCell id="_su7K73Y4DXP-7mO-JMW-422" value="telefono" style="shape=partialRectangle;connectable=0;fillColor=none;top=0;left=0;bottom=0;right=0;align=left;spacingLeft=6;fontStyle=0;overflow=hidden;whiteSpace=wrap;html=1;" vertex="1" parent="_su7K73Y4DXP-7mO-JMW-420">
          <mxGeometry x="30" width="150" height="30" as="geometry">
            <mxRectangle width="150" height="30" as="alternateBounds" />
          </mxGeometry>
        </mxCell>
        <mxCell id="_su7K73Y4DXP-7mO-JMW-193" value="" style="shape=tableRow;horizontal=0;startSize=0;swimlaneHead=0;swimlaneBody=0;fillColor=none;collapsible=0;dropTarget=0;points=[[0,0.5],[1,0.5]];portConstraint=eastwest;top=0;left=0;right=0;bottom=0;" vertex="1" parent="_su7K73Y4DXP-7mO-JMW-189">
          <mxGeometry y="90" width="180" height="30" as="geometry" />
        </mxCell>
        <mxCell id="_su7K73Y4DXP-7mO-JMW-194" value="" style="shape=partialRectangle;connectable=0;fillColor=none;top=0;left=0;bottom=0;right=0;editable=1;overflow=hidden;whiteSpace=wrap;html=1;" vertex="1" parent="_su7K73Y4DXP-7mO-JMW-193">
          <mxGeometry width="30" height="30" as="geometry">
            <mxRectangle width="30" height="30" as="alternateBounds" />
          </mxGeometry>
        </mxCell>
        <mxCell id="_su7K73Y4DXP-7mO-JMW-195" value="nombre" style="shape=partialRectangle;connectable=0;fillColor=none;top=0;left=0;bottom=0;right=0;align=left;spacingLeft=6;overflow=hidden;whiteSpace=wrap;html=1;" vertex="1" parent="_su7K73Y4DXP-7mO-JMW-193">
          <mxGeometry x="30" width="150" height="30" as="geometry">
            <mxRectangle width="150" height="30" as="alternateBounds" />
          </mxGeometry>
        </mxCell>
        <mxCell id="_su7K73Y4DXP-7mO-JMW-196" value="" style="shape=tableRow;horizontal=0;startSize=0;swimlaneHead=0;swimlaneBody=0;fillColor=none;collapsible=0;dropTarget=0;points=[[0,0.5],[1,0.5]];portConstraint=eastwest;top=0;left=0;right=0;bottom=0;" vertex="1" parent="_su7K73Y4DXP-7mO-JMW-189">
          <mxGeometry y="120" width="180" height="30" as="geometry" />
        </mxCell>
        <mxCell id="_su7K73Y4DXP-7mO-JMW-197" value="" style="shape=partialRectangle;connectable=0;fillColor=none;top=0;left=0;bottom=0;right=0;editable=1;overflow=hidden;whiteSpace=wrap;html=1;" vertex="1" parent="_su7K73Y4DXP-7mO-JMW-196">
          <mxGeometry width="30" height="30" as="geometry">
            <mxRectangle width="30" height="30" as="alternateBounds" />
          </mxGeometry>
        </mxCell>
        <mxCell id="_su7K73Y4DXP-7mO-JMW-198" value="direccion" style="shape=partialRectangle;connectable=0;fillColor=none;top=0;left=0;bottom=0;right=0;align=left;spacingLeft=6;overflow=hidden;whiteSpace=wrap;html=1;" vertex="1" parent="_su7K73Y4DXP-7mO-JMW-196">
          <mxGeometry x="30" width="150" height="30" as="geometry">
            <mxRectangle width="150" height="30" as="alternateBounds" />
          </mxGeometry>
        </mxCell>
        <mxCell id="_su7K73Y4DXP-7mO-JMW-224" value="Muebles_altos" style="shape=table;startSize=30;container=1;collapsible=1;childLayout=tableLayout;fixedRows=1;rowLines=0;fontStyle=1;align=center;resizeLast=1;html=1;" vertex="1" parent="1">
          <mxGeometry x="800" y="377" width="180" height="90" as="geometry" />
        </mxCell>
        <mxCell id="_su7K73Y4DXP-7mO-JMW-225" value="" style="shape=tableRow;horizontal=0;startSize=0;swimlaneHead=0;swimlaneBody=0;fillColor=none;collapsible=0;dropTarget=0;points=[[0,0.5],[1,0.5]];portConstraint=eastwest;top=0;left=0;right=0;bottom=1;" vertex="1" parent="_su7K73Y4DXP-7mO-JMW-224">
          <mxGeometry y="30" width="180" height="30" as="geometry" />
        </mxCell>
        <mxCell id="_su7K73Y4DXP-7mO-JMW-226" value="PK" style="shape=partialRectangle;connectable=0;fillColor=none;top=0;left=0;bottom=0;right=0;fontStyle=1;overflow=hidden;whiteSpace=wrap;html=1;" vertex="1" parent="_su7K73Y4DXP-7mO-JMW-225">
          <mxGeometry width="30" height="30" as="geometry">
            <mxRectangle width="30" height="30" as="alternateBounds" />
          </mxGeometry>
        </mxCell>
        <mxCell id="_su7K73Y4DXP-7mO-JMW-227" value="id" style="shape=partialRectangle;connectable=0;fillColor=none;top=0;left=0;bottom=0;right=0;align=left;spacingLeft=6;fontStyle=5;overflow=hidden;whiteSpace=wrap;html=1;" vertex="1" parent="_su7K73Y4DXP-7mO-JMW-225">
          <mxGeometry x="30" width="150" height="30" as="geometry">
            <mxRectangle width="150" height="30" as="alternateBounds" />
          </mxGeometry>
        </mxCell>
        <mxCell id="_su7K73Y4DXP-7mO-JMW-304" value="" style="shape=tableRow;horizontal=0;startSize=0;swimlaneHead=0;swimlaneBody=0;fillColor=none;collapsible=0;dropTarget=0;points=[[0,0.5],[1,0.5]];portConstraint=eastwest;top=0;left=0;right=0;bottom=0;" vertex="1" parent="_su7K73Y4DXP-7mO-JMW-224">
          <mxGeometry y="60" width="180" height="30" as="geometry" />
        </mxCell>
        <mxCell id="_su7K73Y4DXP-7mO-JMW-305" value="FK" style="shape=partialRectangle;connectable=0;fillColor=none;top=0;left=0;bottom=0;right=0;fontStyle=0;overflow=hidden;whiteSpace=wrap;html=1;" vertex="1" parent="_su7K73Y4DXP-7mO-JMW-304">
          <mxGeometry width="30" height="30" as="geometry">
            <mxRectangle width="30" height="30" as="alternateBounds" />
          </mxGeometry>
        </mxCell>
        <mxCell id="_su7K73Y4DXP-7mO-JMW-306" value="id_mueble" style="shape=partialRectangle;connectable=0;fillColor=none;top=0;left=0;bottom=0;right=0;align=left;spacingLeft=6;fontStyle=0;overflow=hidden;whiteSpace=wrap;html=1;" vertex="1" parent="_su7K73Y4DXP-7mO-JMW-304">
          <mxGeometry x="30" width="150" height="30" as="geometry">
            <mxRectangle width="150" height="30" as="alternateBounds" />
          </mxGeometry>
        </mxCell>
        <mxCell id="_su7K73Y4DXP-7mO-JMW-237" value="Muebles_bajos" style="shape=table;startSize=30;container=1;collapsible=1;childLayout=tableLayout;fixedRows=1;rowLines=0;fontStyle=1;align=center;resizeLast=1;html=1;" vertex="1" parent="1">
          <mxGeometry x="580" y="347" width="180" height="120" as="geometry" />
        </mxCell>
        <mxCell id="_su7K73Y4DXP-7mO-JMW-238" value="" style="shape=tableRow;horizontal=0;startSize=0;swimlaneHead=0;swimlaneBody=0;fillColor=none;collapsible=0;dropTarget=0;points=[[0,0.5],[1,0.5]];portConstraint=eastwest;top=0;left=0;right=0;bottom=1;" vertex="1" parent="_su7K73Y4DXP-7mO-JMW-237">
          <mxGeometry y="30" width="180" height="30" as="geometry" />
        </mxCell>
        <mxCell id="_su7K73Y4DXP-7mO-JMW-239" value="PK" style="shape=partialRectangle;connectable=0;fillColor=none;top=0;left=0;bottom=0;right=0;fontStyle=1;overflow=hidden;whiteSpace=wrap;html=1;" vertex="1" parent="_su7K73Y4DXP-7mO-JMW-238">
          <mxGeometry width="30" height="30" as="geometry">
            <mxRectangle width="30" height="30" as="alternateBounds" />
          </mxGeometry>
        </mxCell>
        <mxCell id="_su7K73Y4DXP-7mO-JMW-240" value="id" style="shape=partialRectangle;connectable=0;fillColor=none;top=0;left=0;bottom=0;right=0;align=left;spacingLeft=6;fontStyle=5;overflow=hidden;whiteSpace=wrap;html=1;" vertex="1" parent="_su7K73Y4DXP-7mO-JMW-238">
          <mxGeometry x="30" width="150" height="30" as="geometry">
            <mxRectangle width="150" height="30" as="alternateBounds" />
          </mxGeometry>
        </mxCell>
        <mxCell id="_su7K73Y4DXP-7mO-JMW-308" value="" style="shape=tableRow;horizontal=0;startSize=0;swimlaneHead=0;swimlaneBody=0;fillColor=none;collapsible=0;dropTarget=0;points=[[0,0.5],[1,0.5]];portConstraint=eastwest;top=0;left=0;right=0;bottom=0;" vertex="1" parent="_su7K73Y4DXP-7mO-JMW-237">
          <mxGeometry y="60" width="180" height="30" as="geometry" />
        </mxCell>
        <mxCell id="_su7K73Y4DXP-7mO-JMW-309" value="FK" style="shape=partialRectangle;connectable=0;fillColor=none;top=0;left=0;bottom=0;right=0;fontStyle=0;overflow=hidden;whiteSpace=wrap;html=1;" vertex="1" parent="_su7K73Y4DXP-7mO-JMW-308">
          <mxGeometry width="30" height="30" as="geometry">
            <mxRectangle width="30" height="30" as="alternateBounds" />
          </mxGeometry>
        </mxCell>
        <mxCell id="_su7K73Y4DXP-7mO-JMW-310" value="id_mueble" style="shape=partialRectangle;connectable=0;fillColor=none;top=0;left=0;bottom=0;right=0;align=left;spacingLeft=6;fontStyle=0;overflow=hidden;whiteSpace=wrap;html=1;" vertex="1" parent="_su7K73Y4DXP-7mO-JMW-308">
          <mxGeometry x="30" width="150" height="30" as="geometry">
            <mxRectangle width="150" height="30" as="alternateBounds" />
          </mxGeometry>
        </mxCell>
        <mxCell id="_su7K73Y4DXP-7mO-JMW-292" value="" style="shape=tableRow;horizontal=0;startSize=0;swimlaneHead=0;swimlaneBody=0;fillColor=none;collapsible=0;dropTarget=0;points=[[0,0.5],[1,0.5]];portConstraint=eastwest;top=0;left=0;right=0;bottom=0;" vertex="1" parent="_su7K73Y4DXP-7mO-JMW-237">
          <mxGeometry y="90" width="180" height="30" as="geometry" />
        </mxCell>
        <mxCell id="_su7K73Y4DXP-7mO-JMW-293" value="" style="shape=partialRectangle;connectable=0;fillColor=none;top=0;left=0;bottom=0;right=0;editable=1;overflow=hidden;whiteSpace=wrap;html=1;" vertex="1" parent="_su7K73Y4DXP-7mO-JMW-292">
          <mxGeometry width="30" height="30" as="geometry">
            <mxRectangle width="30" height="30" as="alternateBounds" />
          </mxGeometry>
        </mxCell>
        <mxCell id="_su7K73Y4DXP-7mO-JMW-294" value="altura_sobre_suelo" style="shape=partialRectangle;connectable=0;fillColor=none;top=0;left=0;bottom=0;right=0;align=left;spacingLeft=6;overflow=hidden;whiteSpace=wrap;html=1;" vertex="1" parent="_su7K73Y4DXP-7mO-JMW-292">
          <mxGeometry x="30" width="150" height="30" as="geometry">
            <mxRectangle width="150" height="30" as="alternateBounds" />
          </mxGeometry>
        </mxCell>
        <mxCell id="_su7K73Y4DXP-7mO-JMW-263" value="Paneles" style="shape=table;startSize=30;container=1;collapsible=1;childLayout=tableLayout;fixedRows=1;rowLines=0;fontStyle=1;align=center;resizeLast=1;html=1;" vertex="1" parent="1">
          <mxGeometry x="800" y="237" width="180" height="90" as="geometry" />
        </mxCell>
        <mxCell id="_su7K73Y4DXP-7mO-JMW-264" value="" style="shape=tableRow;horizontal=0;startSize=0;swimlaneHead=0;swimlaneBody=0;fillColor=none;collapsible=0;dropTarget=0;points=[[0,0.5],[1,0.5]];portConstraint=eastwest;top=0;left=0;right=0;bottom=1;" vertex="1" parent="_su7K73Y4DXP-7mO-JMW-263">
          <mxGeometry y="30" width="180" height="30" as="geometry" />
        </mxCell>
        <mxCell id="_su7K73Y4DXP-7mO-JMW-265" value="PK" style="shape=partialRectangle;connectable=0;fillColor=none;top=0;left=0;bottom=0;right=0;fontStyle=1;overflow=hidden;whiteSpace=wrap;html=1;" vertex="1" parent="_su7K73Y4DXP-7mO-JMW-264">
          <mxGeometry width="30" height="30" as="geometry">
            <mxRectangle width="30" height="30" as="alternateBounds" />
          </mxGeometry>
        </mxCell>
        <mxCell id="_su7K73Y4DXP-7mO-JMW-266" value="id" style="shape=partialRectangle;connectable=0;fillColor=none;top=0;left=0;bottom=0;right=0;align=left;spacingLeft=6;fontStyle=5;overflow=hidden;whiteSpace=wrap;html=1;" vertex="1" parent="_su7K73Y4DXP-7mO-JMW-264">
          <mxGeometry x="30" width="150" height="30" as="geometry">
            <mxRectangle width="150" height="30" as="alternateBounds" />
          </mxGeometry>
        </mxCell>
        <mxCell id="_su7K73Y4DXP-7mO-JMW-300" value="" style="shape=tableRow;horizontal=0;startSize=0;swimlaneHead=0;swimlaneBody=0;fillColor=none;collapsible=0;dropTarget=0;points=[[0,0.5],[1,0.5]];portConstraint=eastwest;top=0;left=0;right=0;bottom=0;" vertex="1" parent="_su7K73Y4DXP-7mO-JMW-263">
          <mxGeometry y="60" width="180" height="30" as="geometry" />
        </mxCell>
        <mxCell id="_su7K73Y4DXP-7mO-JMW-301" value="FK" style="shape=partialRectangle;connectable=0;fillColor=none;top=0;left=0;bottom=0;right=0;fontStyle=0;overflow=hidden;whiteSpace=wrap;html=1;" vertex="1" parent="_su7K73Y4DXP-7mO-JMW-300">
          <mxGeometry width="30" height="30" as="geometry">
            <mxRectangle width="30" height="30" as="alternateBounds" />
          </mxGeometry>
        </mxCell>
        <mxCell id="_su7K73Y4DXP-7mO-JMW-302" value="id_mueble" style="shape=partialRectangle;connectable=0;fillColor=none;top=0;left=0;bottom=0;right=0;align=left;spacingLeft=6;fontStyle=0;overflow=hidden;whiteSpace=wrap;html=1;" vertex="1" parent="_su7K73Y4DXP-7mO-JMW-300">
          <mxGeometry x="30" width="150" height="30" as="geometry">
            <mxRectangle width="150" height="30" as="alternateBounds" />
          </mxGeometry>
        </mxCell>
        <mxCell id="_su7K73Y4DXP-7mO-JMW-276" value="Encimeras" style="shape=table;startSize=30;container=1;collapsible=1;childLayout=tableLayout;fixedRows=1;rowLines=0;fontStyle=1;align=center;resizeLast=1;html=1;" vertex="1" parent="1">
          <mxGeometry x="800" y="67" width="180" height="120" as="geometry" />
        </mxCell>
        <mxCell id="_su7K73Y4DXP-7mO-JMW-277" value="" style="shape=tableRow;horizontal=0;startSize=0;swimlaneHead=0;swimlaneBody=0;fillColor=none;collapsible=0;dropTarget=0;points=[[0,0.5],[1,0.5]];portConstraint=eastwest;top=0;left=0;right=0;bottom=1;" vertex="1" parent="_su7K73Y4DXP-7mO-JMW-276">
          <mxGeometry y="30" width="180" height="30" as="geometry" />
        </mxCell>
        <mxCell id="_su7K73Y4DXP-7mO-JMW-278" value="PK" style="shape=partialRectangle;connectable=0;fillColor=none;top=0;left=0;bottom=0;right=0;fontStyle=1;overflow=hidden;whiteSpace=wrap;html=1;" vertex="1" parent="_su7K73Y4DXP-7mO-JMW-277">
          <mxGeometry width="30" height="30" as="geometry">
            <mxRectangle width="30" height="30" as="alternateBounds" />
          </mxGeometry>
        </mxCell>
        <mxCell id="_su7K73Y4DXP-7mO-JMW-279" value="id" style="shape=partialRectangle;connectable=0;fillColor=none;top=0;left=0;bottom=0;right=0;align=left;spacingLeft=6;fontStyle=5;overflow=hidden;whiteSpace=wrap;html=1;" vertex="1" parent="_su7K73Y4DXP-7mO-JMW-277">
          <mxGeometry x="30" width="150" height="30" as="geometry">
            <mxRectangle width="150" height="30" as="alternateBounds" />
          </mxGeometry>
        </mxCell>
        <mxCell id="_su7K73Y4DXP-7mO-JMW-296" value="" style="shape=tableRow;horizontal=0;startSize=0;swimlaneHead=0;swimlaneBody=0;fillColor=none;collapsible=0;dropTarget=0;points=[[0,0.5],[1,0.5]];portConstraint=eastwest;top=0;left=0;right=0;bottom=0;" vertex="1" parent="_su7K73Y4DXP-7mO-JMW-276">
          <mxGeometry y="60" width="180" height="30" as="geometry" />
        </mxCell>
        <mxCell id="_su7K73Y4DXP-7mO-JMW-297" value="FK" style="shape=partialRectangle;connectable=0;fillColor=none;top=0;left=0;bottom=0;right=0;fontStyle=0;overflow=hidden;whiteSpace=wrap;html=1;" vertex="1" parent="_su7K73Y4DXP-7mO-JMW-296">
          <mxGeometry width="30" height="30" as="geometry">
            <mxRectangle width="30" height="30" as="alternateBounds" />
          </mxGeometry>
        </mxCell>
        <mxCell id="_su7K73Y4DXP-7mO-JMW-298" value="id_mueble" style="shape=partialRectangle;connectable=0;fillColor=none;top=0;left=0;bottom=0;right=0;align=left;spacingLeft=6;fontStyle=0;overflow=hidden;whiteSpace=wrap;html=1;" vertex="1" parent="_su7K73Y4DXP-7mO-JMW-296">
          <mxGeometry x="30" width="150" height="30" as="geometry">
            <mxRectangle width="150" height="30" as="alternateBounds" />
          </mxGeometry>
        </mxCell>
        <mxCell id="_su7K73Y4DXP-7mO-JMW-289" value="" style="shape=tableRow;horizontal=0;startSize=0;swimlaneHead=0;swimlaneBody=0;fillColor=none;collapsible=0;dropTarget=0;points=[[0,0.5],[1,0.5]];portConstraint=eastwest;top=0;left=0;right=0;bottom=0;" vertex="1" parent="_su7K73Y4DXP-7mO-JMW-276">
          <mxGeometry y="90" width="180" height="30" as="geometry" />
        </mxCell>
        <mxCell id="_su7K73Y4DXP-7mO-JMW-290" value="" style="shape=partialRectangle;connectable=0;fillColor=none;top=0;left=0;bottom=0;right=0;editable=1;overflow=hidden;whiteSpace=wrap;html=1;" vertex="1" parent="_su7K73Y4DXP-7mO-JMW-289">
          <mxGeometry width="30" height="30" as="geometry">
            <mxRectangle width="30" height="30" as="alternateBounds" />
          </mxGeometry>
        </mxCell>
        <mxCell id="_su7K73Y4DXP-7mO-JMW-291" value="tipo" style="shape=partialRectangle;connectable=0;fillColor=none;top=0;left=0;bottom=0;right=0;align=left;spacingLeft=6;overflow=hidden;whiteSpace=wrap;html=1;" vertex="1" parent="_su7K73Y4DXP-7mO-JMW-289">
          <mxGeometry x="30" width="150" height="30" as="geometry">
            <mxRectangle width="150" height="30" as="alternateBounds" />
          </mxGeometry>
        </mxCell>
        <mxCell id="_su7K73Y4DXP-7mO-JMW-320" value="" style="endArrow=classic;html=1;rounded=0;exitX=1;exitY=0.5;exitDx=0;exitDy=0;entryX=0;entryY=0.5;entryDx=0;entryDy=0;" edge="1" parent="1" source="_su7K73Y4DXP-7mO-JMW-73" target="_su7K73Y4DXP-7mO-JMW-296">
          <mxGeometry width="50" height="50" relative="1" as="geometry">
            <mxPoint x="759" y="324" as="sourcePoint" />
            <mxPoint x="809" y="274" as="targetPoint" />
            <Array as="points">
              <mxPoint x="780" y="82" />
              <mxPoint x="780" y="142" />
            </Array>
          </mxGeometry>
        </mxCell>
        <mxCell id="_su7K73Y4DXP-7mO-JMW-321" value="" style="endArrow=classic;html=1;rounded=0;exitX=1;exitY=0.5;exitDx=0;exitDy=0;entryX=0;entryY=0.5;entryDx=0;entryDy=0;" edge="1" parent="1" source="_su7K73Y4DXP-7mO-JMW-73" target="_su7K73Y4DXP-7mO-JMW-300">
          <mxGeometry width="50" height="50" relative="1" as="geometry">
            <mxPoint x="754" y="243" as="sourcePoint" />
            <mxPoint x="804" y="193" as="targetPoint" />
            <Array as="points">
              <mxPoint x="780" y="82" />
              <mxPoint x="780" y="312" />
            </Array>
          </mxGeometry>
        </mxCell>
        <mxCell id="_su7K73Y4DXP-7mO-JMW-322" value="" style="endArrow=classic;html=1;rounded=0;exitX=1;exitY=0.5;exitDx=0;exitDy=0;entryX=0;entryY=0.5;entryDx=0;entryDy=0;" edge="1" parent="1" source="_su7K73Y4DXP-7mO-JMW-73" target="_su7K73Y4DXP-7mO-JMW-304">
          <mxGeometry width="50" height="50" relative="1" as="geometry">
            <mxPoint x="749" y="289" as="sourcePoint" />
            <mxPoint x="799" y="239" as="targetPoint" />
            <Array as="points">
              <mxPoint x="780" y="82" />
              <mxPoint x="780" y="452" />
            </Array>
          </mxGeometry>
        </mxCell>
        <mxCell id="_su7K73Y4DXP-7mO-JMW-323" value="" style="endArrow=classic;html=1;rounded=0;exitX=1;exitY=0.5;exitDx=0;exitDy=0;entryX=1;entryY=0.5;entryDx=0;entryDy=0;" edge="1" parent="1" source="_su7K73Y4DXP-7mO-JMW-73" target="_su7K73Y4DXP-7mO-JMW-308">
          <mxGeometry width="50" height="50" relative="1" as="geometry">
            <mxPoint x="803" y="305" as="sourcePoint" />
            <mxPoint x="853" y="255" as="targetPoint" />
            <Array as="points">
              <mxPoint x="780" y="82" />
              <mxPoint x="780" y="422" />
            </Array>
          </mxGeometry>
        </mxCell>
        <mxCell id="_su7K73Y4DXP-7mO-JMW-328" value="" style="endArrow=classic;html=1;rounded=0;exitX=1;exitY=0.5;exitDx=0;exitDy=0;entryX=0;entryY=0.5;entryDx=0;entryDy=0;" edge="1" parent="1" source="_su7K73Y4DXP-7mO-JMW-87" target="_su7K73Y4DXP-7mO-JMW-325">
          <mxGeometry width="50" height="50" relative="1" as="geometry">
            <mxPoint x="524" y="144" as="sourcePoint" />
            <mxPoint x="574" y="94" as="targetPoint" />
            <Array as="points">
              <mxPoint x="560" y="392" />
              <mxPoint x="560" y="142" />
            </Array>
          </mxGeometry>
        </mxCell>
        <mxCell id="_su7K73Y4DXP-7mO-JMW-329" value="" style="endArrow=classic;html=1;rounded=0;exitX=0;exitY=0.5;exitDx=0;exitDy=0;entryX=0;entryY=0.5;entryDx=0;entryDy=0;" edge="1" parent="1" source="_su7K73Y4DXP-7mO-JMW-87" target="_su7K73Y4DXP-7mO-JMW-116">
          <mxGeometry width="50" height="50" relative="1" as="geometry">
            <mxPoint x="472" y="234" as="sourcePoint" />
            <mxPoint x="522" y="184" as="targetPoint" />
            <Array as="points">
              <mxPoint x="340" y="392" />
              <mxPoint x="340" y="232" />
            </Array>
          </mxGeometry>
        </mxCell>
        <mxCell id="_su7K73Y4DXP-7mO-JMW-343" value="" style="endArrow=classic;html=1;rounded=0;exitX=0;exitY=0.5;exitDx=0;exitDy=0;entryX=0;entryY=0.5;entryDx=0;entryDy=0;" edge="1" parent="1" source="_su7K73Y4DXP-7mO-JMW-126" target="_su7K73Y4DXP-7mO-JMW-113">
          <mxGeometry width="50" height="50" relative="1" as="geometry">
            <mxPoint x="491" y="208" as="sourcePoint" />
            <mxPoint x="541" y="158" as="targetPoint" />
            <Array as="points">
              <mxPoint x="340" y="12" />
              <mxPoint x="340" y="202" />
            </Array>
          </mxGeometry>
        </mxCell>
        <mxCell id="_su7K73Y4DXP-7mO-JMW-344" value="Telefonos" style="shape=table;startSize=30;container=1;collapsible=1;childLayout=tableLayout;fixedRows=1;rowLines=0;fontStyle=1;align=center;resizeLast=1;html=1;" vertex="1" parent="1">
          <mxGeometry x="140" y="247" width="180" height="60" as="geometry" />
        </mxCell>
        <mxCell id="_su7K73Y4DXP-7mO-JMW-345" value="" style="shape=tableRow;horizontal=0;startSize=0;swimlaneHead=0;swimlaneBody=0;fillColor=none;collapsible=0;dropTarget=0;points=[[0,0.5],[1,0.5]];portConstraint=eastwest;top=0;left=0;right=0;bottom=1;" vertex="1" parent="_su7K73Y4DXP-7mO-JMW-344">
          <mxGeometry y="30" width="180" height="30" as="geometry" />
        </mxCell>
        <mxCell id="_su7K73Y4DXP-7mO-JMW-346" value="PK" style="shape=partialRectangle;connectable=0;fillColor=none;top=0;left=0;bottom=0;right=0;fontStyle=1;overflow=hidden;whiteSpace=wrap;html=1;" vertex="1" parent="_su7K73Y4DXP-7mO-JMW-345">
          <mxGeometry width="30" height="30" as="geometry">
            <mxRectangle width="30" height="30" as="alternateBounds" />
          </mxGeometry>
        </mxCell>
        <mxCell id="_su7K73Y4DXP-7mO-JMW-347" value="numero" style="shape=partialRectangle;connectable=0;fillColor=none;top=0;left=0;bottom=0;right=0;align=left;spacingLeft=6;fontStyle=5;overflow=hidden;whiteSpace=wrap;html=1;" vertex="1" parent="_su7K73Y4DXP-7mO-JMW-345">
          <mxGeometry x="30" width="150" height="30" as="geometry">
            <mxRectangle width="150" height="30" as="alternateBounds" />
          </mxGeometry>
        </mxCell>
        <mxCell id="_su7K73Y4DXP-7mO-JMW-358" value="Distribuidores_Telefonos" style="shape=table;startSize=30;container=1;collapsible=1;childLayout=tableLayout;fixedRows=1;rowLines=0;fontStyle=1;align=center;resizeLast=1;html=1;whiteSpace=wrap;" vertex="1" parent="1">
          <mxGeometry x="140" y="117" width="180" height="90" as="geometry" />
        </mxCell>
        <mxCell id="_su7K73Y4DXP-7mO-JMW-359" value="" style="shape=tableRow;horizontal=0;startSize=0;swimlaneHead=0;swimlaneBody=0;fillColor=none;collapsible=0;dropTarget=0;points=[[0,0.5],[1,0.5]];portConstraint=eastwest;top=0;left=0;right=0;bottom=0;html=1;" vertex="1" parent="_su7K73Y4DXP-7mO-JMW-358">
          <mxGeometry y="30" width="180" height="30" as="geometry" />
        </mxCell>
        <mxCell id="_su7K73Y4DXP-7mO-JMW-360" value="PK,FK1" style="shape=partialRectangle;connectable=0;fillColor=none;top=0;left=0;bottom=0;right=0;fontStyle=1;overflow=hidden;html=1;whiteSpace=wrap;" vertex="1" parent="_su7K73Y4DXP-7mO-JMW-359">
          <mxGeometry width="60" height="30" as="geometry">
            <mxRectangle width="60" height="30" as="alternateBounds" />
          </mxGeometry>
        </mxCell>
        <mxCell id="_su7K73Y4DXP-7mO-JMW-361" value="id_distribuidor" style="shape=partialRectangle;connectable=0;fillColor=none;top=0;left=0;bottom=0;right=0;align=left;spacingLeft=6;fontStyle=5;overflow=hidden;html=1;whiteSpace=wrap;" vertex="1" parent="_su7K73Y4DXP-7mO-JMW-359">
          <mxGeometry x="60" width="120" height="30" as="geometry">
            <mxRectangle width="120" height="30" as="alternateBounds" />
          </mxGeometry>
        </mxCell>
        <mxCell id="_su7K73Y4DXP-7mO-JMW-362" value="" style="shape=tableRow;horizontal=0;startSize=0;swimlaneHead=0;swimlaneBody=0;fillColor=none;collapsible=0;dropTarget=0;points=[[0,0.5],[1,0.5]];portConstraint=eastwest;top=0;left=0;right=0;bottom=1;html=1;" vertex="1" parent="_su7K73Y4DXP-7mO-JMW-358">
          <mxGeometry y="60" width="180" height="30" as="geometry" />
        </mxCell>
        <mxCell id="_su7K73Y4DXP-7mO-JMW-363" value="PK,FK2" style="shape=partialRectangle;connectable=0;fillColor=none;top=0;left=0;bottom=0;right=0;fontStyle=1;overflow=hidden;html=1;whiteSpace=wrap;" vertex="1" parent="_su7K73Y4DXP-7mO-JMW-362">
          <mxGeometry width="60" height="30" as="geometry">
            <mxRectangle width="60" height="30" as="alternateBounds" />
          </mxGeometry>
        </mxCell>
        <mxCell id="_su7K73Y4DXP-7mO-JMW-364" value="numero_telefono" style="shape=partialRectangle;connectable=0;fillColor=none;top=0;left=0;bottom=0;right=0;align=left;spacingLeft=6;fontStyle=5;overflow=hidden;html=1;whiteSpace=wrap;" vertex="1" parent="_su7K73Y4DXP-7mO-JMW-362">
          <mxGeometry x="60" width="120" height="30" as="geometry">
            <mxRectangle width="120" height="30" as="alternateBounds" />
          </mxGeometry>
        </mxCell>
        <mxCell id="_su7K73Y4DXP-7mO-JMW-383" value="Fabricantes_Telefonos" style="shape=table;startSize=30;container=1;collapsible=1;childLayout=tableLayout;fixedRows=1;rowLines=0;fontStyle=1;align=center;resizeLast=1;html=1;whiteSpace=wrap;" vertex="1" parent="1">
          <mxGeometry x="140" y="347" width="180" height="90" as="geometry" />
        </mxCell>
        <mxCell id="_su7K73Y4DXP-7mO-JMW-384" value="" style="shape=tableRow;horizontal=0;startSize=0;swimlaneHead=0;swimlaneBody=0;fillColor=none;collapsible=0;dropTarget=0;points=[[0,0.5],[1,0.5]];portConstraint=eastwest;top=0;left=0;right=0;bottom=0;html=1;" vertex="1" parent="_su7K73Y4DXP-7mO-JMW-383">
          <mxGeometry y="30" width="180" height="30" as="geometry" />
        </mxCell>
        <mxCell id="_su7K73Y4DXP-7mO-JMW-385" value="PK,FK1" style="shape=partialRectangle;connectable=0;fillColor=none;top=0;left=0;bottom=0;right=0;fontStyle=1;overflow=hidden;html=1;whiteSpace=wrap;" vertex="1" parent="_su7K73Y4DXP-7mO-JMW-384">
          <mxGeometry width="60" height="30" as="geometry">
            <mxRectangle width="60" height="30" as="alternateBounds" />
          </mxGeometry>
        </mxCell>
        <mxCell id="_su7K73Y4DXP-7mO-JMW-386" value="id_fabricante" style="shape=partialRectangle;connectable=0;fillColor=none;top=0;left=0;bottom=0;right=0;align=left;spacingLeft=6;fontStyle=5;overflow=hidden;html=1;whiteSpace=wrap;" vertex="1" parent="_su7K73Y4DXP-7mO-JMW-384">
          <mxGeometry x="60" width="120" height="30" as="geometry">
            <mxRectangle width="120" height="30" as="alternateBounds" />
          </mxGeometry>
        </mxCell>
        <mxCell id="_su7K73Y4DXP-7mO-JMW-387" value="" style="shape=tableRow;horizontal=0;startSize=0;swimlaneHead=0;swimlaneBody=0;fillColor=none;collapsible=0;dropTarget=0;points=[[0,0.5],[1,0.5]];portConstraint=eastwest;top=0;left=0;right=0;bottom=1;html=1;" vertex="1" parent="_su7K73Y4DXP-7mO-JMW-383">
          <mxGeometry y="60" width="180" height="30" as="geometry" />
        </mxCell>
        <mxCell id="_su7K73Y4DXP-7mO-JMW-388" value="PK,FK2" style="shape=partialRectangle;connectable=0;fillColor=none;top=0;left=0;bottom=0;right=0;fontStyle=1;overflow=hidden;html=1;whiteSpace=wrap;" vertex="1" parent="_su7K73Y4DXP-7mO-JMW-387">
          <mxGeometry width="60" height="30" as="geometry">
            <mxRectangle width="60" height="30" as="alternateBounds" />
          </mxGeometry>
        </mxCell>
        <mxCell id="_su7K73Y4DXP-7mO-JMW-389" value="numero_telefono" style="shape=partialRectangle;connectable=0;fillColor=none;top=0;left=0;bottom=0;right=0;align=left;spacingLeft=6;fontStyle=5;overflow=hidden;html=1;whiteSpace=wrap;" vertex="1" parent="_su7K73Y4DXP-7mO-JMW-387">
          <mxGeometry x="60" width="120" height="30" as="geometry">
            <mxRectangle width="120" height="30" as="alternateBounds" />
          </mxGeometry>
        </mxCell>
        <mxCell id="_su7K73Y4DXP-7mO-JMW-390" value="" style="endArrow=classic;html=1;rounded=0;entryX=1;entryY=0.5;entryDx=0;entryDy=0;exitX=0;exitY=0.5;exitDx=0;exitDy=0;" edge="1" parent="1" source="_su7K73Y4DXP-7mO-JMW-126" target="_su7K73Y4DXP-7mO-JMW-359">
          <mxGeometry width="50" height="50" relative="1" as="geometry">
            <mxPoint x="434" y="218" as="sourcePoint" />
            <mxPoint x="484" y="168" as="targetPoint" />
            <Array as="points">
              <mxPoint x="340" y="12" />
              <mxPoint x="340" y="162" />
            </Array>
          </mxGeometry>
        </mxCell>
        <mxCell id="_su7K73Y4DXP-7mO-JMW-391" value="" style="endArrow=classic;html=1;rounded=0;entryX=1;entryY=0.5;entryDx=0;entryDy=0;exitX=0;exitY=0.5;exitDx=0;exitDy=0;" edge="1" parent="1" source="_su7K73Y4DXP-7mO-JMW-87" target="_su7K73Y4DXP-7mO-JMW-384">
          <mxGeometry width="50" height="50" relative="1" as="geometry">
            <mxPoint x="434" y="492" as="sourcePoint" />
            <mxPoint x="484" y="442" as="targetPoint" />
          </mxGeometry>
        </mxCell>
        <mxCell id="_su7K73Y4DXP-7mO-JMW-392" value="" style="endArrow=classic;html=1;rounded=0;exitX=0;exitY=0.5;exitDx=0;exitDy=0;entryX=0;entryY=0.5;entryDx=0;entryDy=0;" edge="1" parent="1" source="_su7K73Y4DXP-7mO-JMW-345" target="_su7K73Y4DXP-7mO-JMW-362">
          <mxGeometry width="50" height="50" relative="1" as="geometry">
            <mxPoint x="297" y="218" as="sourcePoint" />
            <mxPoint x="347" y="168" as="targetPoint" />
            <Array as="points">
              <mxPoint x="120" y="292" />
              <mxPoint x="120" y="192" />
            </Array>
          </mxGeometry>
        </mxCell>
        <mxCell id="_su7K73Y4DXP-7mO-JMW-397" value="" style="endArrow=classic;html=1;rounded=0;exitX=0;exitY=0.5;exitDx=0;exitDy=0;entryX=0;entryY=0.5;entryDx=0;entryDy=0;" edge="1" parent="1" source="_su7K73Y4DXP-7mO-JMW-345" target="_su7K73Y4DXP-7mO-JMW-387">
          <mxGeometry width="50" height="50" relative="1" as="geometry">
            <mxPoint x="163" y="254" as="sourcePoint" />
            <mxPoint x="213" y="204" as="targetPoint" />
            <Array as="points">
              <mxPoint x="120" y="292" />
              <mxPoint x="120" y="422" />
            </Array>
          </mxGeometry>
        </mxCell>
        <mxCell id="_su7K73Y4DXP-7mO-JMW-413" value="" style="endArrow=classic;html=1;rounded=0;exitX=1;exitY=0.5;exitDx=0;exitDy=0;entryX=0;entryY=0.5;entryDx=0;entryDy=0;" edge="1" parent="1" source="_su7K73Y4DXP-7mO-JMW-126" target="_su7K73Y4DXP-7mO-JMW-410">
          <mxGeometry width="50" height="50" relative="1" as="geometry">
            <mxPoint x="520" y="83" as="sourcePoint" />
            <mxPoint x="570" y="33" as="targetPoint" />
            <Array as="points">
              <mxPoint x="560" y="12" />
              <mxPoint x="560" y="-78" />
            </Array>
          </mxGeometry>
        </mxCell>
        <mxCell id="_su7K73Y4DXP-7mO-JMW-417" value="" style="endArrow=classic;html=1;rounded=0;exitX=1;exitY=0.5;exitDx=0;exitDy=0;entryX=0;entryY=0.5;entryDx=0;entryDy=0;" edge="1" parent="1" source="_su7K73Y4DXP-7mO-JMW-190" target="_su7K73Y4DXP-7mO-JMW-180">
          <mxGeometry width="50" height="50" relative="1" as="geometry">
            <mxPoint x="524" y="62" as="sourcePoint" />
            <mxPoint x="574" y="12" as="targetPoint" />
            <Array as="points">
              <mxPoint x="340" y="-28" />
              <mxPoint x="340" y="-88" />
            </Array>
          </mxGeometry>
        </mxCell>
        <mxCell id="_su7K73Y4DXP-7mO-JMW-418" value="" style="endArrow=classic;html=1;rounded=0;entryX=1;entryY=0.5;entryDx=0;entryDy=0;exitX=0;exitY=0.5;exitDx=0;exitDy=0;" edge="1" parent="1" source="_su7K73Y4DXP-7mO-JMW-100" target="_su7K73Y4DXP-7mO-JMW-177">
          <mxGeometry width="50" height="50" relative="1" as="geometry">
            <mxPoint x="524" y="62" as="sourcePoint" />
            <mxPoint x="574" y="12" as="targetPoint" />
            <Array as="points">
              <mxPoint x="560" y="-108" />
              <mxPoint x="560" y="-118" />
            </Array>
          </mxGeometry>
        </mxCell>
        <mxCell id="_su7K73Y4DXP-7mO-JMW-427" value="" style="endArrow=classic;html=1;rounded=0;exitX=1;exitY=0.5;exitDx=0;exitDy=0;entryX=0;entryY=0.5;entryDx=0;entryDy=0;" edge="1" parent="1" source="_su7K73Y4DXP-7mO-JMW-164" target="_su7K73Y4DXP-7mO-JMW-154">
          <mxGeometry width="50" height="50" relative="1" as="geometry">
            <mxPoint x="379" y="-88" as="sourcePoint" />
            <mxPoint x="429" y="-138" as="targetPoint" />
          </mxGeometry>
        </mxCell>
        <mxCell id="_su7K73Y4DXP-7mO-JMW-428" value="" style="endArrow=classic;html=1;rounded=0;entryX=1;entryY=0.5;entryDx=0;entryDy=0;exitX=0;exitY=0.5;exitDx=0;exitDy=0;" edge="1" parent="1" source="_su7K73Y4DXP-7mO-JMW-100" target="_su7K73Y4DXP-7mO-JMW-151">
          <mxGeometry width="50" height="50" relative="1" as="geometry">
            <mxPoint x="528" y="-98" as="sourcePoint" />
            <mxPoint x="578" y="-148" as="targetPoint" />
            <Array as="points">
              <mxPoint x="560" y="-108" />
              <mxPoint x="560" y="-248" />
            </Array>
          </mxGeometry>
        </mxCell>
        <mxCell id="_su7K73Y4DXP-7mO-JMW-429" value="" style="endArrow=classic;html=1;rounded=0;entryX=0;entryY=0.5;entryDx=0;entryDy=0;exitX=0;exitY=0.5;exitDx=0;exitDy=0;" edge="1" parent="1" source="_su7K73Y4DXP-7mO-JMW-345" target="_su7K73Y4DXP-7mO-JMW-420">
          <mxGeometry width="50" height="50" relative="1" as="geometry">
            <mxPoint x="165" y="225" as="sourcePoint" />
            <mxPoint x="215" y="175" as="targetPoint" />
            <Array as="points">
              <mxPoint x="120" y="292" />
              <mxPoint x="120" y="2" />
            </Array>
          </mxGeometry>
        </mxCell>
        <mxCell id="_su7K73Y4DXP-7mO-JMW-430" value="" style="endArrow=classic;html=1;rounded=0;exitX=0;exitY=0.5;exitDx=0;exitDy=0;entryX=0;entryY=0.5;entryDx=0;entryDy=0;" edge="1" parent="1" source="_su7K73Y4DXP-7mO-JMW-345" target="_su7K73Y4DXP-7mO-JMW-424">
          <mxGeometry width="50" height="50" relative="1" as="geometry">
            <mxPoint x="185" y="149" as="sourcePoint" />
            <mxPoint x="235" y="99" as="targetPoint" />
            <Array as="points">
              <mxPoint x="120" y="292" />
              <mxPoint x="120" y="-188" />
            </Array>
          </mxGeometry>
        </mxCell>
      </root>
    </mxGraphModel>
  </diagram>
</mxfile>
